<?xml version="1.0" encoding="UTF-8"?>
<!DOCTYPE svg PUBLIC "-//W3C//DTD SVG 1.1//EN" "http://www.w3.org/Graphics/SVG/1.1/DTD/svg11.dtd">
<svg width="229mm" height="125mm" viewBox="0 0 22900 12500" version="1.1" xmlns="http://www.w3.org/2000/svg" stroke-width="28.222" stroke-linejoin="round" xml:space="preserve">
 <path fill="rgb(255,255,255)" stroke="none" d="M 11445,12517 L 0,12517 0,0 22890,0 22890,12517 11445,12517 Z"/>
 <path fill="none" stroke="rgb(179,179,179)" stroke-linejoin="round" d="M 10985,10495 L 2233,10495 2233,1614 19737,1614 19737,10495 10985,10495 Z"/>
 <path fill="none" stroke="rgb(179,179,179)" stroke-linejoin="round" d="M 19737,10493 L 2233,10493"/>
 <path fill="none" stroke="rgb(179,179,179)" stroke-linejoin="round" d="M 19737,9225 L 2233,9225"/>
 <path fill="none" stroke="rgb(179,179,179)" stroke-linejoin="round" d="M 19737,7956 L 2233,7956"/>
 <path fill="none" stroke="rgb(179,179,179)" stroke-linejoin="round" d="M 19737,6687 L 2233,6687"/>
 <path fill="none" stroke="rgb(179,179,179)" stroke-linejoin="round" d="M 19737,5419 L 2233,5419"/>
 <path fill="none" stroke="rgb(179,179,179)" stroke-linejoin="round" d="M 19737,4150 L 2233,4150"/>
 <path fill="none" stroke="rgb(179,179,179)" stroke-linejoin="round" d="M 19737,2881 L 2233,2881"/>
 <path fill="none" stroke="rgb(179,179,179)" stroke-linejoin="round" d="M 19737,1613 L 2233,1613"/>
 <path fill="none" stroke="rgb(179,179,179)" stroke-linejoin="round" d="M 2233,10643 L 2233,10493"/>
 <path fill="none" stroke="rgb(179,179,179)" stroke-linejoin="round" d="M 2233,10643 L 2233,10493"/>
 <path fill="none" stroke="rgb(179,179,179)" stroke-linejoin="round" d="M 6609,10643 L 6609,10493"/>
 <path fill="none" stroke="rgb(179,179,179)" stroke-linejoin="round" d="M 6609,10643 L 6609,10493"/>
 <path fill="none" stroke="rgb(179,179,179)" stroke-linejoin="round" d="M 10985,10643 L 10985,10493"/>
 <path fill="none" stroke="rgb(179,179,179)" stroke-linejoin="round" d="M 10985,10643 L 10985,10493"/>
 <path fill="none" stroke="rgb(179,179,179)" stroke-linejoin="round" d="M 15360,10643 L 15360,10493"/>
 <path fill="none" stroke="rgb(179,179,179)" stroke-linejoin="round" d="M 15360,10643 L 15360,10493"/>
 <path fill="none" stroke="rgb(179,179,179)" stroke-linejoin="round" d="M 19737,10643 L 19737,10493"/>
 <path fill="none" stroke="rgb(179,179,179)" stroke-linejoin="round" d="M 19737,10643 L 19737,10493"/>
 <path fill="none" stroke="rgb(179,179,179)" stroke-linejoin="round" d="M 2233,10493 L 19737,10493"/>
 <path fill="none" stroke="rgb(179,179,179)" stroke-linejoin="round" d="M 2083,10493 L 2233,10493"/>
 <path fill="none" stroke="rgb(179,179,179)" stroke-linejoin="round" d="M 2083,10493 L 2233,10493"/>
 <path fill="none" stroke="rgb(179,179,179)" stroke-linejoin="round" d="M 2083,9225 L 2233,9225"/>
 <path fill="none" stroke="rgb(179,179,179)" stroke-linejoin="round" d="M 2083,9225 L 2233,9225"/>
 <path fill="none" stroke="rgb(179,179,179)" stroke-linejoin="round" d="M 2083,7956 L 2233,7956"/>
 <path fill="none" stroke="rgb(179,179,179)" stroke-linejoin="round" d="M 2083,7956 L 2233,7956"/>
 <path fill="none" stroke="rgb(179,179,179)" stroke-linejoin="round" d="M 2083,6687 L 2233,6687"/>
 <path fill="none" stroke="rgb(179,179,179)" stroke-linejoin="round" d="M 2083,6687 L 2233,6687"/>
 <path fill="none" stroke="rgb(179,179,179)" stroke-linejoin="round" d="M 2083,5419 L 2233,5419"/>
 <path fill="none" stroke="rgb(179,179,179)" stroke-linejoin="round" d="M 2083,5419 L 2233,5419"/>
 <path fill="none" stroke="rgb(179,179,179)" stroke-linejoin="round" d="M 2083,4150 L 2233,4150"/>
 <path fill="none" stroke="rgb(179,179,179)" stroke-linejoin="round" d="M 2083,4150 L 2233,4150"/>
 <path fill="none" stroke="rgb(179,179,179)" stroke-linejoin="round" d="M 2083,2881 L 2233,2881"/>
 <path fill="none" stroke="rgb(179,179,179)" stroke-linejoin="round" d="M 2083,2881 L 2233,2881"/>
 <path fill="none" stroke="rgb(179,179,179)" stroke-linejoin="round" d="M 2083,1613 L 2233,1613"/>
 <path fill="none" stroke="rgb(179,179,179)" stroke-linejoin="round" d="M 2083,1613 L 2233,1613"/>
 <path fill="none" stroke="rgb(179,179,179)" stroke-linejoin="round" d="M 2233,10493 L 2233,1613"/>
 <path fill="none" stroke="rgb(0,69,134)" stroke-width="80" stroke-linejoin="round" d="M 2233,5038 L 6609,2754 10985,4023 15360,2501 19737,4023"/>
 <path fill="rgb(0,69,134)" stroke="none" d="M 2108,4913 L 2108,5163 2358,5163 2358,4913 2108,4913 Z"/>
 <path fill="none" stroke="rgb(0,69,134)" stroke-linejoin="round" d="M 2108,4913 L 2108,5163 2358,5163 2358,4913 2108,4913 Z"/>
 <path fill="rgb(0,69,134)" stroke="none" d="M 6484,2629 L 6484,2879 6734,2879 6734,2629 6484,2629 Z"/>
 <path fill="none" stroke="rgb(0,69,134)" stroke-linejoin="round" d="M 6484,2629 L 6484,2879 6734,2879 6734,2629 6484,2629 Z"/>
 <path fill="rgb(0,69,134)" stroke="none" d="M 10860,3898 L 10860,4148 11110,4148 11110,3898 10860,3898 Z"/>
 <path fill="none" stroke="rgb(0,69,134)" stroke-linejoin="round" d="M 10860,3898 L 10860,4148 11110,4148 11110,3898 10860,3898 Z"/>
 <path fill="rgb(0,69,134)" stroke="none" d="M 15235,2376 L 15235,2626 15485,2626 15485,2376 15235,2376 Z"/>
 <path fill="none" stroke="rgb(0,69,134)" stroke-linejoin="round" d="M 15235,2376 L 15235,2626 15485,2626 15485,2376 15235,2376 Z"/>
 <path fill="rgb(0,69,134)" stroke="none" d="M 19612,3898 L 19612,4148 19862,4148 19862,3898 19612,3898 Z"/>
 <path fill="none" stroke="rgb(0,69,134)" stroke-linejoin="round" d="M 19612,3898 L 19612,4148 19862,4148 19862,3898 19612,3898 Z"/>
 <path fill="none" stroke="rgb(255,66,14)" stroke-width="80" stroke-linejoin="round" d="M 2233,7829 L 6609,8717 10985,6306 15360,6941 19737,6433"/>
 <path fill="rgb(255,66,14)" stroke="none" d="M 2108,7829 L 2233,7954 2358,7829 2233,7704 2108,7829 Z"/>
 <path fill="none" stroke="rgb(255,66,14)" stroke-linejoin="round" d="M 2108,7829 L 2233,7954 2358,7829 2233,7704 2108,7829 Z"/>
 <path fill="rgb(255,66,14)" stroke="none" d="M 6484,8717 L 6609,8842 6734,8717 6609,8592 6484,8717 Z"/>
 <path fill="none" stroke="rgb(255,66,14)" stroke-linejoin="round" d="M 6484,8717 L 6609,8842 6734,8717 6609,8592 6484,8717 Z"/>
 <path fill="rgb(255,66,14)" stroke="none" d="M 10860,6306 L 10985,6431 11110,6306 10985,6182 10860,6306 Z"/>
 <path fill="none" stroke="rgb(255,66,14)" stroke-linejoin="round" d="M 10860,6306 L 10985,6431 11110,6306 10985,6182 10860,6306 Z"/>
 <path fill="rgb(255,66,14)" stroke="none" d="M 15235,6941 L 15360,7066 15485,6941 15360,6816 15235,6941 Z"/>
 <path fill="none" stroke="rgb(255,66,14)" stroke-linejoin="round" d="M 15235,6941 L 15360,7066 15485,6941 15360,6816 15235,6941 Z"/>
 <path fill="rgb(255,66,14)" stroke="none" d="M 19612,6433 L 19737,6558 19862,6433 19737,6308 19612,6433 Z"/>
 <path fill="none" stroke="rgb(255,66,14)" stroke-linejoin="round" d="M 19612,6433 L 19737,6558 19862,6433 19737,6308 19612,6433 Z"/>
 <path fill="none" stroke="rgb(255,211,32)" stroke-width="80" stroke-linejoin="round" d="M 2233,4531 L 6609,5292 10985,6053 15360,5165 19737,5165"/>
 <path fill="rgb(255,211,32)" stroke="none" d="M 2108,4406 L 2233,4656 2358,4406 2108,4406 Z"/>
 <path fill="none" stroke="rgb(255,211,32)" stroke-linejoin="round" d="M 2108,4406 L 2233,4656 2358,4406 2108,4406 Z"/>
 <path fill="rgb(255,211,32)" stroke="none" d="M 6484,5167 L 6609,5417 6734,5167 6484,5167 Z"/>
 <path fill="none" stroke="rgb(255,211,32)" stroke-linejoin="round" d="M 6484,5167 L 6609,5417 6734,5167 6484,5167 Z"/>
 <path fill="rgb(255,211,32)" stroke="none" d="M 10860,5928 L 10985,6178 11110,5928 10860,5928 Z"/>
 <path fill="none" stroke="rgb(255,211,32)" stroke-linejoin="round" d="M 10860,5928 L 10985,6178 11110,5928 10860,5928 Z"/>
 <path fill="rgb(255,211,32)" stroke="none" d="M 15235,5040 L 15360,5290 15485,5040 15235,5040 Z"/>
 <path fill="none" stroke="rgb(255,211,32)" stroke-linejoin="round" d="M 15235,5040 L 15360,5290 15485,5040 15235,5040 Z"/>
 <path fill="rgb(255,211,32)" stroke="none" d="M 19612,5040 L 19737,5290 19862,5040 19612,5040 Z"/>
 <path fill="none" stroke="rgb(255,211,32)" stroke-linejoin="round" d="M 19612,5040 L 19737,5290 19862,5040 19612,5040 Z"/>
 <path fill="none" stroke="rgb(87,157,28)" stroke-width="80" stroke-linejoin="round" d="M 2233,4531 L 6609,5292 10985,6053 15360,5165 19737,5165"/>
 <path fill="rgb(87,157,28)" stroke="none" d="M 2108,4656 L 2358,4656 2233,4406 2108,4656 Z"/>
 <path fill="none" stroke="rgb(87,157,28)" stroke-linejoin="round" d="M 2108,4656 L 2358,4656 2233,4406 2108,4656 Z"/>
 <path fill="rgb(87,157,28)" stroke="none" d="M 6484,5417 L 6734,5417 6609,5167 6484,5417 Z"/>
 <path fill="none" stroke="rgb(87,157,28)" stroke-linejoin="round" d="M 6484,5417 L 6734,5417 6609,5167 6484,5417 Z"/>
 <path fill="rgb(87,157,28)" stroke="none" d="M 10860,6178 L 11110,6178 10985,5928 10860,6178 Z"/>
 <path fill="none" stroke="rgb(87,157,28)" stroke-linejoin="round" d="M 10860,6178 L 11110,6178 10985,5928 10860,6178 Z"/>
 <path fill="rgb(87,157,28)" stroke="none" d="M 15235,5290 L 15485,5290 15360,5040 15235,5290 Z"/>
 <path fill="none" stroke="rgb(87,157,28)" stroke-linejoin="round" d="M 15235,5290 L 15485,5290 15360,5040 15235,5290 Z"/>
 <path fill="rgb(87,157,28)" stroke="none" d="M 19612,5290 L 19862,5290 19737,5040 19612,5290 Z"/>
 <path fill="none" stroke="rgb(87,157,28)" stroke-linejoin="round" d="M 19612,5290 L 19862,5290 19737,5040 19612,5290 Z"/>
 <path fill="none" stroke="rgb(126,0,33)" stroke-width="80" stroke-linejoin="round" d="M 2233,5165 L 6609,4531 10985,4531 15360,4785 19737,6180"/>
 <path fill="rgb(126,0,33)" stroke="none" d="M 2108,5040 L 2108,5290 2358,5165 2108,5040 Z"/>
 <path fill="none" stroke="rgb(126,0,33)" stroke-linejoin="round" d="M 2108,5040 L 2108,5290 2358,5165 2108,5040 Z"/>
 <path fill="rgb(126,0,33)" stroke="none" d="M 6484,4406 L 6484,4656 6734,4531 6484,4406 Z"/>
 <path fill="none" stroke="rgb(126,0,33)" stroke-linejoin="round" d="M 6484,4406 L 6484,4656 6734,4531 6484,4406 Z"/>
 <path fill="rgb(126,0,33)" stroke="none" d="M 10860,4406 L 10860,4656 11110,4531 10860,4406 Z"/>
 <path fill="none" stroke="rgb(126,0,33)" stroke-linejoin="round" d="M 10860,4406 L 10860,4656 11110,4531 10860,4406 Z"/>
 <path fill="rgb(126,0,33)" stroke="none" d="M 15235,4660 L 15235,4910 15485,4785 15235,4660 Z"/>
 <path fill="none" stroke="rgb(126,0,33)" stroke-linejoin="round" d="M 15235,4660 L 15235,4910 15485,4785 15235,4660 Z"/>
 <path fill="rgb(126,0,33)" stroke="none" d="M 19612,6055 L 19612,6304 19862,6180 19612,6055 Z"/>
 <path fill="none" stroke="rgb(126,0,33)" stroke-linejoin="round" d="M 19612,6055 L 19612,6304 19862,6180 19612,6055 Z"/>
 <path fill="none" stroke="rgb(131,202,255)" stroke-width="80" stroke-linejoin="round" d="M 2233,8590 L 6609,7194 10985,6180 15360,6433 19737,8717"/>
 <path fill="rgb(131,202,255)" stroke="none" d="M 2108,8590 L 2358,8715 2358,8465 2108,8590 Z"/>
 <path fill="none" stroke="rgb(131,202,255)" stroke-linejoin="round" d="M 2108,8590 L 2358,8715 2358,8465 2108,8590 Z"/>
 <path fill="rgb(131,202,255)" stroke="none" d="M 6484,7194 L 6734,7319 6734,7069 6484,7194 Z"/>
 <path fill="none" stroke="rgb(131,202,255)" stroke-linejoin="round" d="M 6484,7194 L 6734,7319 6734,7069 6484,7194 Z"/>
 <path fill="rgb(131,202,255)" stroke="none" d="M 10860,6180 L 11110,6304 11110,6055 10860,6180 Z"/>
 <path fill="none" stroke="rgb(131,202,255)" stroke-linejoin="round" d="M 10860,6180 L 11110,6304 11110,6055 10860,6180 Z"/>
 <path fill="rgb(131,202,255)" stroke="none" d="M 15235,6433 L 15485,6558 15485,6308 15235,6433 Z"/>
 <path fill="none" stroke="rgb(131,202,255)" stroke-linejoin="round" d="M 15235,6433 L 15485,6558 15485,6308 15235,6433 Z"/>
 <path fill="rgb(131,202,255)" stroke="none" d="M 19612,8717 L 19862,8842 19862,8592 19612,8717 Z"/>
 <path fill="none" stroke="rgb(131,202,255)" stroke-linejoin="round" d="M 19612,8717 L 19862,8842 19862,8592 19612,8717 Z"/>
 <path fill="none" stroke="rgb(49,64,4)" stroke-width="80" stroke-linejoin="round" d="M 2233,4785 L 6609,4785 10985,4785 15360,4785 19737,4785"/>
 <path fill="rgb(49,64,4)" stroke="none" d="M 2108,4660 L 2108,4910 2358,4660 2358,4910 2108,4660 Z"/>
 <path fill="none" stroke="rgb(49,64,4)" stroke-linejoin="round" d="M 2108,4660 L 2108,4910 2358,4660 2358,4910 2108,4660 Z"/>
 <path fill="rgb(49,64,4)" stroke="none" d="M 6484,4660 L 6484,4910 6734,4660 6734,4910 6484,4660 Z"/>
 <path fill="none" stroke="rgb(49,64,4)" stroke-linejoin="round" d="M 6484,4660 L 6484,4910 6734,4660 6734,4910 6484,4660 Z"/>
 <path fill="rgb(49,64,4)" stroke="none" d="M 10860,4660 L 10860,4910 11110,4660 11110,4910 10860,4660 Z"/>
 <path fill="none" stroke="rgb(49,64,4)" stroke-linejoin="round" d="M 10860,4660 L 10860,4910 11110,4660 11110,4910 10860,4660 Z"/>
 <path fill="rgb(49,64,4)" stroke="none" d="M 15235,4660 L 15235,4910 15485,4660 15485,4910 15235,4660 Z"/>
 <path fill="none" stroke="rgb(49,64,4)" stroke-linejoin="round" d="M 15235,4660 L 15235,4910 15485,4660 15485,4910 15235,4660 Z"/>
 <path fill="rgb(49,64,4)" stroke="none" d="M 19612,4660 L 19612,4910 19862,4660 19862,4910 19612,4660 Z"/>
 <path fill="none" stroke="rgb(49,64,4)" stroke-linejoin="round" d="M 19612,4660 L 19612,4910 19862,4660 19862,4910 19612,4660 Z"/>
 <path fill="none" stroke="rgb(174,207,0)" stroke-width="80" stroke-linejoin="round" d="M 2233,10493 L 6609,9098 10985,9352 15360,9986 19737,8083"/>
 <path fill="rgb(174,207,0)" stroke="none" d="M 2108,10618 L 2358,10618 2108,10368 2358,10368 2108,10618 Z"/>
 <path fill="none" stroke="rgb(174,207,0)" stroke-linejoin="round" d="M 2108,10618 L 2358,10618 2108,10368 2358,10368 2108,10618 Z"/>
 <path fill="rgb(174,207,0)" stroke="none" d="M 6484,9223 L 6734,9223 6484,8973 6734,8973 6484,9223 Z"/>
 <path fill="none" stroke="rgb(174,207,0)" stroke-linejoin="round" d="M 6484,9223 L 6734,9223 6484,8973 6734,8973 6484,9223 Z"/>
 <path fill="rgb(174,207,0)" stroke="none" d="M 10860,9477 L 11110,9477 10860,9227 11110,9227 10860,9477 Z"/>
 <path fill="none" stroke="rgb(174,207,0)" stroke-linejoin="round" d="M 10860,9477 L 11110,9477 10860,9227 11110,9227 10860,9477 Z"/>
 <path fill="rgb(174,207,0)" stroke="none" d="M 15235,10111 L 15485,10111 15235,9861 15485,9861 15235,10111 Z"/>
 <path fill="none" stroke="rgb(174,207,0)" stroke-linejoin="round" d="M 15235,10111 L 15485,10111 15235,9861 15485,9861 15235,10111 Z"/>
 <path fill="rgb(174,207,0)" stroke="none" d="M 19612,8208 L 19862,8208 19612,7958 19862,7958 19612,8208 Z"/>
 <path fill="none" stroke="rgb(174,207,0)" stroke-linejoin="round" d="M 19612,8208 L 19862,8208 19612,7958 19862,7958 19612,8208 Z"/>
 <text class="TextShape"><tspan class="TextParagraph" font-family="Liberation Sans" font-size="353px" font-weight="400"><tspan class="TextPosition" x="1902" y="11061"><tspan fill="rgb(0,0,0)" stroke="none">0.95</tspan></tspan></tspan></text>
 <text class="TextShape"><tspan class="TextParagraph" font-family="Liberation Sans" font-size="353px" font-weight="400"><tspan class="TextPosition" x="6371" y="11061"><tspan fill="rgb(0,0,0)" stroke="none">0.9</tspan></tspan></tspan></text>
 <text class="TextShape"><tspan class="TextParagraph" font-family="Liberation Sans" font-size="353px" font-weight="400"><tspan class="TextPosition" x="10654" y="11061"><tspan fill="rgb(0,0,0)" stroke="none">0.85</tspan></tspan></tspan></text>
 <text class="TextShape"><tspan class="TextParagraph" font-family="Liberation Sans" font-size="353px" font-weight="400"><tspan class="TextPosition" x="15123" y="11061"><tspan fill="rgb(0,0,0)" stroke="none">0.8</tspan></tspan></tspan></text>
 <text class="TextShape"><tspan class="TextParagraph" font-family="Liberation Sans" font-size="353px" font-weight="400"><tspan class="TextPosition" x="19500" y="11061"><tspan fill="rgb(0,0,0)" stroke="none">0.7</tspan></tspan></tspan></text>
 <text class="TextShape"><tspan class="TextParagraph" font-family="Liberation Sans" font-size="353px" font-weight="400"><tspan class="TextPosition" x="1613" y="10614"><tspan fill="rgb(0,0,0)" stroke="none">65</tspan></tspan></tspan></text>
 <text class="TextShape"><tspan class="TextParagraph" font-family="Liberation Sans" font-size="353px" font-weight="400"><tspan class="TextPosition" x="1613" y="9346"><tspan fill="rgb(0,0,0)" stroke="none">75</tspan></tspan></tspan></text>
 <text class="TextShape"><tspan class="TextParagraph" font-family="Liberation Sans" font-size="353px" font-weight="400"><tspan class="TextPosition" x="1613" y="8077"><tspan fill="rgb(0,0,0)" stroke="none">85</tspan></tspan></tspan></text>
 <text class="TextShape"><tspan class="TextParagraph" font-family="Liberation Sans" font-size="353px" font-weight="400"><tspan class="TextPosition" x="1613" y="6808"><tspan fill="rgb(0,0,0)" stroke="none">95</tspan></tspan></tspan></text>
 <text class="TextShape"><tspan class="TextParagraph" font-family="Liberation Sans" font-size="353px" font-weight="400"><tspan class="TextPosition" x="1427" y="5539"><tspan fill="rgb(0,0,0)" stroke="none">105</tspan></tspan></tspan></text>
 <text class="TextShape"><tspan class="TextParagraph" font-family="Liberation Sans" font-size="353px" font-weight="400"><tspan class="TextPosition" x="1427" y="4270"><tspan fill="rgb(0,0,0)" stroke="none">115</tspan></tspan></tspan></text>
 <text class="TextShape"><tspan class="TextParagraph" font-family="Liberation Sans" font-size="353px" font-weight="400"><tspan class="TextPosition" x="1427" y="3001"><tspan fill="rgb(0,0,0)" stroke="none">125</tspan></tspan></tspan></text>
 <text class="TextShape"><tspan class="TextParagraph" font-family="Liberation Sans" font-size="353px" font-weight="400"><tspan class="TextPosition" x="1427" y="1733"><tspan fill="rgb(0,0,0)" stroke="none">135</tspan></tspan></tspan></text>
 <text class="TextShape"><tspan class="TextParagraph" font-family="Liberation Sans" font-size="459px" font-weight="400"><tspan class="TextPosition" x="7542" y="921"><tspan fill="rgb(0,0,0)" stroke="none">Greedy initial + SA optimization (factor)</tspan></tspan></tspan></text>
 <path fill="none" stroke="rgb(0,69,134)" stroke-width="80" stroke-linejoin="round" d="M 20736,4515 L 21536,4515"/>
 <path fill="rgb(0,69,134)" stroke="none" d="M 21030,4410 L 21030,4621 21241,4621 21241,4410 21030,4410 Z"/>
 <path fill="none" stroke="rgb(0,69,134)" stroke-linejoin="round" d="M 21030,4410 L 21030,4621 21241,4621 21241,4410 21030,4410 Z"/>
 <path fill="none" stroke="rgb(255,66,14)" stroke-width="80" stroke-linejoin="round" d="M 20736,5013 L 21536,5013"/>
 <path fill="rgb(255,66,14)" stroke="none" d="M 21030,5013 L 21136,5119 21241,5013 21136,4908 21030,5013 Z"/>
 <path fill="none" stroke="rgb(255,66,14)" stroke-linejoin="round" d="M 21030,5013 L 21136,5119 21241,5013 21136,4908 21030,5013 Z"/>
 <path fill="none" stroke="rgb(255,211,32)" stroke-width="80" stroke-linejoin="round" d="M 20736,5511 L 21536,5511"/>
 <path fill="rgb(255,211,32)" stroke="none" d="M 21030,5406 L 21136,5617 21241,5406 21030,5406 Z"/>
 <path fill="none" stroke="rgb(255,211,32)" stroke-linejoin="round" d="M 21030,5406 L 21136,5617 21241,5406 21030,5406 Z"/>
 <path fill="none" stroke="rgb(87,157,28)" stroke-width="80" stroke-linejoin="round" d="M 20736,6009 L 21536,6009"/>
 <path fill="rgb(87,157,28)" stroke="none" d="M 21030,6115 L 21241,6115 21136,5904 21030,6115 Z"/>
 <path fill="none" stroke="rgb(87,157,28)" stroke-linejoin="round" d="M 21030,6115 L 21241,6115 21136,5904 21030,6115 Z"/>
 <path fill="none" stroke="rgb(126,0,33)" stroke-width="80" stroke-linejoin="round" d="M 20736,6506 L 21536,6506"/>
 <path fill="rgb(126,0,33)" stroke="none" d="M 21030,6401 L 21030,6612 21241,6506 21030,6401 Z"/>
 <path fill="none" stroke="rgb(126,0,33)" stroke-linejoin="round" d="M 21030,6401 L 21030,6612 21241,6506 21030,6401 Z"/>
 <path fill="none" stroke="rgb(131,202,255)" stroke-width="80" stroke-linejoin="round" d="M 20736,7004 L 21536,7004"/>
 <path fill="rgb(131,202,255)" stroke="none" d="M 21030,7004 L 21241,7110 21241,6899 21030,7004 Z"/>
 <path fill="none" stroke="rgb(131,202,255)" stroke-linejoin="round" d="M 21030,7004 L 21241,7110 21241,6899 21030,7004 Z"/>
 <path fill="none" stroke="rgb(49,64,4)" stroke-width="80" stroke-linejoin="round" d="M 20736,7502 L 21536,7502"/>
 <path fill="rgb(49,64,4)" stroke="none" d="M 21030,7397 L 21030,7608 21241,7397 21241,7608 21030,7397 Z"/>
 <path fill="none" stroke="rgb(49,64,4)" stroke-linejoin="round" d="M 21030,7397 L 21030,7608 21241,7397 21241,7608 21030,7397 Z"/>
 <path fill="none" stroke="rgb(174,207,0)" stroke-width="80" stroke-linejoin="round" d="M 20736,8000 L 21536,8000"/>
 <path fill="rgb(174,207,0)" stroke="none" d="M 21030,8106 L 21241,8106 21030,7895 21241,7895 21030,8106 Z"/>
 <path fill="none" stroke="rgb(174,207,0)" stroke-linejoin="round" d="M 21030,8106 L 21241,8106 21030,7895 21241,7895 21030,8106 Z"/>
 <text class="TextShape"><tspan class="TextParagraph" font-family="Liberation Sans" font-size="353px" font-weight="400"><tspan class="TextPosition" x="21636" y="4635"><tspan fill="rgb(0,0,0)" stroke="none">1B</tspan></tspan></tspan></text>
 <text class="TextShape"><tspan class="TextParagraph" font-family="Liberation Sans" font-size="353px" font-weight="400"><tspan class="TextPosition" x="21636" y="5133"><tspan fill="rgb(0,0,0)" stroke="none">1A</tspan></tspan></tspan></text>
 <text class="TextShape"><tspan class="TextParagraph" font-family="Liberation Sans" font-size="353px" font-weight="400"><tspan class="TextPosition" x="21636" y="5631"><tspan fill="rgb(0,0,0)" stroke="none">2B</tspan></tspan></tspan></text>
 <text class="TextShape"><tspan class="TextParagraph" font-family="Liberation Sans" font-size="353px" font-weight="400"><tspan class="TextPosition" x="21636" y="6129"><tspan fill="rgb(0,0,0)" stroke="none">2A</tspan></tspan></tspan></text>
 <text class="TextShape"><tspan class="TextParagraph" font-family="Liberation Sans" font-size="353px" font-weight="400"><tspan class="TextPosition" x="21636" y="6626"><tspan fill="rgb(0,0,0)" stroke="none">3B</tspan></tspan></tspan></text>
 <text class="TextShape"><tspan class="TextParagraph" font-family="Liberation Sans" font-size="353px" font-weight="400"><tspan class="TextPosition" x="21636" y="7124"><tspan fill="rgb(0,0,0)" stroke="none">3A</tspan></tspan></tspan></text>
 <text class="TextShape"><tspan class="TextParagraph" font-family="Liberation Sans" font-size="353px" font-weight="400"><tspan class="TextPosition" x="21636" y="7622"><tspan fill="rgb(0,0,0)" stroke="none">REFB</tspan></tspan></tspan></text>
 <text class="TextShape"><tspan class="TextParagraph" font-family="Liberation Sans" font-size="353px" font-weight="400"><tspan class="TextPosition" x="21636" y="8120"><tspan fill="rgb(0,0,0)" stroke="none">REFA</tspan></tspan></tspan></text>
 <text class="TextShape"><tspan class="TextParagraph" font-family="Liberation Sans" font-size="423px" font-weight="400"><tspan class="TextPosition" x="10292" y="11969"><tspan fill="rgb(0,0,0)" stroke="none">Factor</tspan></tspan></tspan></text>
 <text class="TextShape" transform="translate(948,6834) rotate(-90) translate(-948,-6834)"><tspan class="TextParagraph" font-family="Liberation Sans" font-size="423px" font-weight="400"><tspan class="TextPosition" x="948" y="6834"><tspan fill="rgb(0,0,0)" stroke="none">Score</tspan></tspan></tspan></text>
</svg>