<?xml version="1.0" encoding="UTF-8"?>
<!DOCTYPE svg PUBLIC "-//W3C//DTD SVG 1.1//EN" "http://www.w3.org/Graphics/SVG/1.1/DTD/svg11.dtd">
<svg width="208mm" height="115mm" viewBox="0 0 20800 11500" version="1.1" xmlns="http://www.w3.org/2000/svg" stroke-width="28.222" stroke-linejoin="round" xml:space="preserve">
 <path fill="rgb(255,255,255)" stroke="none" d="M 10399,11534 L 0,11534 0,0 20798,0 20798,11534 10399,11534 Z"/>
 <path fill="none" stroke="rgb(179,179,179)" stroke-linejoin="round" d="M 9867,9676 L 2047,9676 2047,1375 17687,1375 17687,9676 9867,9676 Z"/>
 <path fill="none" stroke="rgb(179,179,179)" stroke-linejoin="round" d="M 17687,9675 L 2047,9675"/>
 <path fill="none" stroke="rgb(179,179,179)" stroke-linejoin="round" d="M 17687,8568 L 2047,8568"/>
 <path fill="none" stroke="rgb(179,179,179)" stroke-linejoin="round" d="M 17687,7461 L 2047,7461"/>
 <path fill="none" stroke="rgb(179,179,179)" stroke-linejoin="round" d="M 17687,6354 L 2047,6354"/>
 <path fill="none" stroke="rgb(179,179,179)" stroke-linejoin="round" d="M 17687,5248 L 2047,5248"/>
 <path fill="none" stroke="rgb(179,179,179)" stroke-linejoin="round" d="M 17687,4141 L 2047,4141"/>
 <path fill="none" stroke="rgb(179,179,179)" stroke-linejoin="round" d="M 17687,3034 L 2047,3034"/>
 <path fill="none" stroke="rgb(179,179,179)" stroke-linejoin="round" d="M 17687,1927 L 2047,1927"/>
 <path fill="none" stroke="rgb(179,179,179)" stroke-linejoin="round" d="M 2047,9825 L 2047,9675"/>
 <path fill="none" stroke="rgb(179,179,179)" stroke-linejoin="round" d="M 2047,9825 L 2047,9675"/>
 <path fill="none" stroke="rgb(179,179,179)" stroke-linejoin="round" d="M 5175,9825 L 5175,9675"/>
 <path fill="none" stroke="rgb(179,179,179)" stroke-linejoin="round" d="M 5175,9825 L 5175,9675"/>
 <path fill="none" stroke="rgb(179,179,179)" stroke-linejoin="round" d="M 8303,9825 L 8303,9675"/>
 <path fill="none" stroke="rgb(179,179,179)" stroke-linejoin="round" d="M 8303,9825 L 8303,9675"/>
 <path fill="none" stroke="rgb(179,179,179)" stroke-linejoin="round" d="M 11430,9825 L 11430,9675"/>
 <path fill="none" stroke="rgb(179,179,179)" stroke-linejoin="round" d="M 11430,9825 L 11430,9675"/>
 <path fill="none" stroke="rgb(179,179,179)" stroke-linejoin="round" d="M 14558,9825 L 14558,9675"/>
 <path fill="none" stroke="rgb(179,179,179)" stroke-linejoin="round" d="M 14558,9825 L 14558,9675"/>
 <path fill="none" stroke="rgb(179,179,179)" stroke-linejoin="round" d="M 17687,9825 L 17687,9675"/>
 <path fill="none" stroke="rgb(179,179,179)" stroke-linejoin="round" d="M 17687,9825 L 17687,9675"/>
 <path fill="none" stroke="rgb(179,179,179)" stroke-linejoin="round" d="M 2047,9675 L 17687,9675"/>
 <path fill="none" stroke="rgb(179,179,179)" stroke-linejoin="round" d="M 1897,9675 L 2047,9675"/>
 <path fill="none" stroke="rgb(179,179,179)" stroke-linejoin="round" d="M 1897,9675 L 2047,9675"/>
 <path fill="none" stroke="rgb(179,179,179)" stroke-linejoin="round" d="M 1897,8568 L 2047,8568"/>
 <path fill="none" stroke="rgb(179,179,179)" stroke-linejoin="round" d="M 1897,8568 L 2047,8568"/>
 <path fill="none" stroke="rgb(179,179,179)" stroke-linejoin="round" d="M 1897,7461 L 2047,7461"/>
 <path fill="none" stroke="rgb(179,179,179)" stroke-linejoin="round" d="M 1897,7461 L 2047,7461"/>
 <path fill="none" stroke="rgb(179,179,179)" stroke-linejoin="round" d="M 1897,6354 L 2047,6354"/>
 <path fill="none" stroke="rgb(179,179,179)" stroke-linejoin="round" d="M 1897,6354 L 2047,6354"/>
 <path fill="none" stroke="rgb(179,179,179)" stroke-linejoin="round" d="M 1897,5248 L 2047,5248"/>
 <path fill="none" stroke="rgb(179,179,179)" stroke-linejoin="round" d="M 1897,5248 L 2047,5248"/>
 <path fill="none" stroke="rgb(179,179,179)" stroke-linejoin="round" d="M 1897,4141 L 2047,4141"/>
 <path fill="none" stroke="rgb(179,179,179)" stroke-linejoin="round" d="M 1897,4141 L 2047,4141"/>
 <path fill="none" stroke="rgb(179,179,179)" stroke-linejoin="round" d="M 1897,3034 L 2047,3034"/>
 <path fill="none" stroke="rgb(179,179,179)" stroke-linejoin="round" d="M 1897,3034 L 2047,3034"/>
 <path fill="none" stroke="rgb(179,179,179)" stroke-linejoin="round" d="M 1897,1927 L 2047,1927"/>
 <path fill="none" stroke="rgb(179,179,179)" stroke-linejoin="round" d="M 1897,1927 L 2047,1927"/>
 <path fill="none" stroke="rgb(179,179,179)" stroke-linejoin="round" d="M 2047,9675 L 2047,1374"/>
 <path fill="none" stroke="rgb(0,69,134)" stroke-width="80" stroke-linejoin="round" d="M 2047,2259 L 5175,2370 8303,3477 11430,3366 14558,1816 17687,2370"/>
 <path fill="rgb(0,69,134)" stroke="none" d="M 1922,2134 L 1922,2384 2172,2384 2172,2134 1922,2134 Z"/>
 <path fill="none" stroke="rgb(0,69,134)" stroke-linejoin="round" d="M 1922,2134 L 1922,2384 2172,2384 2172,2134 1922,2134 Z"/>
 <path fill="rgb(0,69,134)" stroke="none" d="M 5050,2245 L 5050,2495 5300,2495 5300,2245 5050,2245 Z"/>
 <path fill="none" stroke="rgb(0,69,134)" stroke-linejoin="round" d="M 5050,2245 L 5050,2495 5300,2495 5300,2245 5050,2245 Z"/>
 <path fill="rgb(0,69,134)" stroke="none" d="M 8178,3352 L 8178,3602 8428,3602 8428,3352 8178,3352 Z"/>
 <path fill="none" stroke="rgb(0,69,134)" stroke-linejoin="round" d="M 8178,3352 L 8178,3602 8428,3602 8428,3352 8178,3352 Z"/>
 <path fill="rgb(0,69,134)" stroke="none" d="M 11305,3241 L 11305,3491 11555,3491 11555,3241 11305,3241 Z"/>
 <path fill="none" stroke="rgb(0,69,134)" stroke-linejoin="round" d="M 11305,3241 L 11305,3491 11555,3491 11555,3241 11305,3241 Z"/>
 <path fill="rgb(0,69,134)" stroke="none" d="M 14433,1691 L 14433,1941 14683,1941 14683,1691 14433,1691 Z"/>
 <path fill="none" stroke="rgb(0,69,134)" stroke-linejoin="round" d="M 14433,1691 L 14433,1941 14683,1941 14683,1691 14433,1691 Z"/>
 <path fill="rgb(0,69,134)" stroke="none" d="M 17562,2245 L 17562,2495 17812,2495 17812,2245 17562,2245 Z"/>
 <path fill="none" stroke="rgb(0,69,134)" stroke-linejoin="round" d="M 17562,2245 L 17562,2495 17812,2495 17812,2245 17562,2245 Z"/>
 <path fill="none" stroke="rgb(255,66,14)" stroke-width="80" stroke-linejoin="round" d="M 2047,6243 L 5175,5691 8303,5580 11430,6907 14558,5026 17687,8235"/>
 <path fill="rgb(255,66,14)" stroke="none" d="M 1922,6243 L 2047,6368 2172,6243 2047,6118 1922,6243 Z"/>
 <path fill="none" stroke="rgb(255,66,14)" stroke-linejoin="round" d="M 1922,6243 L 2047,6368 2172,6243 2047,6118 1922,6243 Z"/>
 <path fill="rgb(255,66,14)" stroke="none" d="M 5050,5691 L 5175,5815 5300,5691 5175,5566 5050,5691 Z"/>
 <path fill="none" stroke="rgb(255,66,14)" stroke-linejoin="round" d="M 5050,5691 L 5175,5815 5300,5691 5175,5566 5050,5691 Z"/>
 <path fill="rgb(255,66,14)" stroke="none" d="M 8178,5580 L 8303,5705 8428,5580 8303,5455 8178,5580 Z"/>
 <path fill="none" stroke="rgb(255,66,14)" stroke-linejoin="round" d="M 8178,5580 L 8303,5705 8428,5580 8303,5455 8178,5580 Z"/>
 <path fill="rgb(255,66,14)" stroke="none" d="M 11305,6907 L 11430,7032 11555,6907 11430,6782 11305,6907 Z"/>
 <path fill="none" stroke="rgb(255,66,14)" stroke-linejoin="round" d="M 11305,6907 L 11430,7032 11555,6907 11430,6782 11305,6907 Z"/>
 <path fill="rgb(255,66,14)" stroke="none" d="M 14433,5026 L 14558,5151 14683,5026 14558,4901 14433,5026 Z"/>
 <path fill="none" stroke="rgb(255,66,14)" stroke-linejoin="round" d="M 14433,5026 L 14558,5151 14683,5026 14558,4901 14433,5026 Z"/>
 <path fill="rgb(255,66,14)" stroke="none" d="M 17562,8235 L 17687,8360 17812,8235 17687,8110 17562,8235 Z"/>
 <path fill="none" stroke="rgb(255,66,14)" stroke-linejoin="round" d="M 17562,8235 L 17687,8360 17812,8235 17687,8110 17562,8235 Z"/>
 <path fill="none" stroke="rgb(255,211,32)" stroke-width="80" stroke-linejoin="round" d="M 2047,4694 L 5175,3698 8303,3919 11430,2702 14558,3919 17687,3477"/>
 <path fill="rgb(255,211,32)" stroke="none" d="M 1922,4569 L 2047,4819 2172,4569 1922,4569 Z"/>
 <path fill="none" stroke="rgb(255,211,32)" stroke-linejoin="round" d="M 1922,4569 L 2047,4819 2172,4569 1922,4569 Z"/>
 <path fill="rgb(255,211,32)" stroke="none" d="M 5050,3573 L 5175,3823 5300,3573 5050,3573 Z"/>
 <path fill="none" stroke="rgb(255,211,32)" stroke-linejoin="round" d="M 5050,3573 L 5175,3823 5300,3573 5050,3573 Z"/>
 <path fill="rgb(255,211,32)" stroke="none" d="M 8178,3794 L 8303,4044 8428,3794 8178,3794 Z"/>
 <path fill="none" stroke="rgb(255,211,32)" stroke-linejoin="round" d="M 8178,3794 L 8303,4044 8428,3794 8178,3794 Z"/>
 <path fill="rgb(255,211,32)" stroke="none" d="M 11305,2577 L 11430,2827 11555,2577 11305,2577 Z"/>
 <path fill="none" stroke="rgb(255,211,32)" stroke-linejoin="round" d="M 11305,2577 L 11430,2827 11555,2577 11305,2577 Z"/>
 <path fill="rgb(255,211,32)" stroke="none" d="M 14433,3794 L 14558,4044 14683,3794 14433,3794 Z"/>
 <path fill="none" stroke="rgb(255,211,32)" stroke-linejoin="round" d="M 14433,3794 L 14558,4044 14683,3794 14433,3794 Z"/>
 <path fill="rgb(255,211,32)" stroke="none" d="M 17562,3352 L 17687,3602 17812,3352 17562,3352 Z"/>
 <path fill="none" stroke="rgb(255,211,32)" stroke-linejoin="round" d="M 17562,3352 L 17687,3602 17812,3352 17562,3352 Z"/>
 <path fill="none" stroke="rgb(87,157,28)" stroke-width="80" stroke-linejoin="round" d="M 2047,4694 L 5175,3698 8303,3919 11430,2702 14558,3919 17687,3477"/>
 <path fill="rgb(87,157,28)" stroke="none" d="M 1922,4819 L 2172,4819 2047,4569 1922,4819 Z"/>
 <path fill="none" stroke="rgb(87,157,28)" stroke-linejoin="round" d="M 1922,4819 L 2172,4819 2047,4569 1922,4819 Z"/>
 <path fill="rgb(87,157,28)" stroke="none" d="M 5050,3823 L 5300,3823 5175,3573 5050,3823 Z"/>
 <path fill="none" stroke="rgb(87,157,28)" stroke-linejoin="round" d="M 5050,3823 L 5300,3823 5175,3573 5050,3823 Z"/>
 <path fill="rgb(87,157,28)" stroke="none" d="M 8178,4044 L 8428,4044 8303,3794 8178,4044 Z"/>
 <path fill="none" stroke="rgb(87,157,28)" stroke-linejoin="round" d="M 8178,4044 L 8428,4044 8303,3794 8178,4044 Z"/>
 <path fill="rgb(87,157,28)" stroke="none" d="M 11305,2827 L 11555,2827 11430,2577 11305,2827 Z"/>
 <path fill="none" stroke="rgb(87,157,28)" stroke-linejoin="round" d="M 11305,2827 L 11555,2827 11430,2577 11305,2827 Z"/>
 <path fill="rgb(87,157,28)" stroke="none" d="M 14433,4044 L 14683,4044 14558,3794 14433,4044 Z"/>
 <path fill="none" stroke="rgb(87,157,28)" stroke-linejoin="round" d="M 14433,4044 L 14683,4044 14558,3794 14433,4044 Z"/>
 <path fill="rgb(87,157,28)" stroke="none" d="M 17562,3602 L 17812,3602 17687,3352 17562,3602 Z"/>
 <path fill="none" stroke="rgb(87,157,28)" stroke-linejoin="round" d="M 17562,3602 L 17812,3602 17687,3352 17562,3602 Z"/>
 <path fill="none" stroke="rgb(126,0,33)" stroke-width="80" stroke-linejoin="round" d="M 2047,2702 L 5175,4805 8303,4694 11430,5137 14558,3698 17687,2480"/>
 <path fill="rgb(126,0,33)" stroke="none" d="M 1922,2577 L 1922,2827 2172,2702 1922,2577 Z"/>
 <path fill="none" stroke="rgb(126,0,33)" stroke-linejoin="round" d="M 1922,2577 L 1922,2827 2172,2702 1922,2577 Z"/>
 <path fill="rgb(126,0,33)" stroke="none" d="M 5050,4680 L 5050,4930 5300,4805 5050,4680 Z"/>
 <path fill="none" stroke="rgb(126,0,33)" stroke-linejoin="round" d="M 5050,4680 L 5050,4930 5300,4805 5050,4680 Z"/>
 <path fill="rgb(126,0,33)" stroke="none" d="M 8178,4569 L 8178,4819 8428,4694 8178,4569 Z"/>
 <path fill="none" stroke="rgb(126,0,33)" stroke-linejoin="round" d="M 8178,4569 L 8178,4819 8428,4694 8178,4569 Z"/>
 <path fill="rgb(126,0,33)" stroke="none" d="M 11305,5012 L 11305,5262 11555,5137 11305,5012 Z"/>
 <path fill="none" stroke="rgb(126,0,33)" stroke-linejoin="round" d="M 11305,5012 L 11305,5262 11555,5137 11305,5012 Z"/>
 <path fill="rgb(126,0,33)" stroke="none" d="M 14433,3573 L 14433,3823 14683,3698 14433,3573 Z"/>
 <path fill="none" stroke="rgb(126,0,33)" stroke-linejoin="round" d="M 14433,3573 L 14433,3823 14683,3698 14433,3573 Z"/>
 <path fill="rgb(126,0,33)" stroke="none" d="M 17562,2355 L 17562,2605 17812,2480 17562,2355 Z"/>
 <path fill="none" stroke="rgb(126,0,33)" stroke-linejoin="round" d="M 17562,2355 L 17562,2605 17812,2480 17562,2355 Z"/>
 <path fill="none" stroke="rgb(131,202,255)" stroke-width="80" stroke-linejoin="round" d="M 2047,5026 L 5175,6022 8303,7571 11430,6907 14558,5800 17687,5248"/>
 <path fill="rgb(131,202,255)" stroke="none" d="M 1922,5026 L 2172,5151 2172,4901 1922,5026 Z"/>
 <path fill="none" stroke="rgb(131,202,255)" stroke-linejoin="round" d="M 1922,5026 L 2172,5151 2172,4901 1922,5026 Z"/>
 <path fill="rgb(131,202,255)" stroke="none" d="M 5050,6022 L 5300,6147 5300,5897 5050,6022 Z"/>
 <path fill="none" stroke="rgb(131,202,255)" stroke-linejoin="round" d="M 5050,6022 L 5300,6147 5300,5897 5050,6022 Z"/>
 <path fill="rgb(131,202,255)" stroke="none" d="M 8178,7571 L 8428,7696 8428,7446 8178,7571 Z"/>
 <path fill="none" stroke="rgb(131,202,255)" stroke-linejoin="round" d="M 8178,7571 L 8428,7696 8428,7446 8178,7571 Z"/>
 <path fill="rgb(131,202,255)" stroke="none" d="M 11305,6907 L 11555,7032 11555,6782 11305,6907 Z"/>
 <path fill="none" stroke="rgb(131,202,255)" stroke-linejoin="round" d="M 11305,6907 L 11555,7032 11555,6782 11305,6907 Z"/>
 <path fill="rgb(131,202,255)" stroke="none" d="M 14433,5800 L 14683,5925 14683,5676 14433,5800 Z"/>
 <path fill="none" stroke="rgb(131,202,255)" stroke-linejoin="round" d="M 14433,5800 L 14683,5925 14683,5676 14433,5800 Z"/>
 <path fill="rgb(131,202,255)" stroke="none" d="M 17562,5248 L 17812,5373 17812,5123 17562,5248 Z"/>
 <path fill="none" stroke="rgb(131,202,255)" stroke-linejoin="round" d="M 17562,5248 L 17812,5373 17812,5123 17562,5248 Z"/>
 <path fill="none" stroke="rgb(49,64,4)" stroke-width="80" stroke-linejoin="round" d="M 2047,4141 L 5175,4141 8303,4141 11430,4141 14558,4141 17687,4141"/>
 <path fill="rgb(49,64,4)" stroke="none" d="M 1922,4016 L 1922,4266 2172,4016 2172,4266 1922,4016 Z"/>
 <path fill="none" stroke="rgb(49,64,4)" stroke-linejoin="round" d="M 1922,4016 L 1922,4266 2172,4016 2172,4266 1922,4016 Z"/>
 <path fill="rgb(49,64,4)" stroke="none" d="M 5050,4016 L 5050,4266 5300,4016 5300,4266 5050,4016 Z"/>
 <path fill="none" stroke="rgb(49,64,4)" stroke-linejoin="round" d="M 5050,4016 L 5050,4266 5300,4016 5300,4266 5050,4016 Z"/>
 <path fill="rgb(49,64,4)" stroke="none" d="M 8178,4016 L 8178,4266 8428,4016 8428,4266 8178,4016 Z"/>
 <path fill="none" stroke="rgb(49,64,4)" stroke-linejoin="round" d="M 8178,4016 L 8178,4266 8428,4016 8428,4266 8178,4016 Z"/>
 <path fill="rgb(49,64,4)" stroke="none" d="M 11305,4016 L 11305,4266 11555,4016 11555,4266 11305,4016 Z"/>
 <path fill="none" stroke="rgb(49,64,4)" stroke-linejoin="round" d="M 11305,4016 L 11305,4266 11555,4016 11555,4266 11305,4016 Z"/>
 <path fill="rgb(49,64,4)" stroke="none" d="M 14433,4016 L 14433,4266 14683,4016 14683,4266 14433,4016 Z"/>
 <path fill="none" stroke="rgb(49,64,4)" stroke-linejoin="round" d="M 14433,4016 L 14433,4266 14683,4016 14683,4266 14433,4016 Z"/>
 <path fill="rgb(49,64,4)" stroke="none" d="M 17562,4016 L 17562,4266 17812,4016 17812,4266 17562,4016 Z"/>
 <path fill="none" stroke="rgb(49,64,4)" stroke-linejoin="round" d="M 17562,4016 L 17562,4266 17812,4016 17812,4266 17562,4016 Z"/>
 <path fill="none" stroke="rgb(174,207,0)" stroke-width="80" stroke-linejoin="round" d="M 2047,7903 L 5175,9342 8303,8900 11430,8346 14558,8125 17687,8125"/>
 <path fill="rgb(174,207,0)" stroke="none" d="M 1922,8028 L 2172,8028 1922,7778 2172,7778 1922,8028 Z"/>
 <path fill="none" stroke="rgb(174,207,0)" stroke-linejoin="round" d="M 1922,8028 L 2172,8028 1922,7778 2172,7778 1922,8028 Z"/>
 <path fill="rgb(174,207,0)" stroke="none" d="M 5050,9467 L 5300,9467 5050,9217 5300,9217 5050,9467 Z"/>
 <path fill="none" stroke="rgb(174,207,0)" stroke-linejoin="round" d="M 5050,9467 L 5300,9467 5050,9217 5300,9217 5050,9467 Z"/>
 <path fill="rgb(174,207,0)" stroke="none" d="M 8178,9025 L 8428,9025 8178,8775 8428,8775 8178,9025 Z"/>
 <path fill="none" stroke="rgb(174,207,0)" stroke-linejoin="round" d="M 8178,9025 L 8428,9025 8178,8775 8428,8775 8178,9025 Z"/>
 <path fill="rgb(174,207,0)" stroke="none" d="M 11305,8471 L 11555,8471 11305,8221 11555,8221 11305,8471 Z"/>
 <path fill="none" stroke="rgb(174,207,0)" stroke-linejoin="round" d="M 11305,8471 L 11555,8471 11305,8221 11555,8221 11305,8471 Z"/>
 <path fill="rgb(174,207,0)" stroke="none" d="M 14433,8250 L 14683,8250 14433,8000 14683,8000 14433,8250 Z"/>
 <path fill="none" stroke="rgb(174,207,0)" stroke-linejoin="round" d="M 14433,8250 L 14683,8250 14433,8000 14683,8000 14433,8250 Z"/>
 <path fill="rgb(174,207,0)" stroke="none" d="M 17562,8250 L 17812,8250 17562,8000 17812,8000 17562,8250 Z"/>
 <path fill="none" stroke="rgb(174,207,0)" stroke-linejoin="round" d="M 17562,8250 L 17812,8250 17562,8000 17812,8000 17562,8250 Z"/>
 <text class="TextShape"><tspan class="TextParagraph" font-family="Liberation Sans" font-size="353px" font-weight="400"><tspan class="TextPosition" x="1862" y="10243"><tspan fill="rgb(0,0,0)" stroke="none">10</tspan></tspan></tspan></text>
 <text class="TextShape"><tspan class="TextParagraph" font-family="Liberation Sans" font-size="353px" font-weight="400"><tspan class="TextPosition" x="5082" y="10243"><tspan fill="rgb(0,0,0)" stroke="none">7</tspan></tspan></tspan></text>
 <text class="TextShape"><tspan class="TextParagraph" font-family="Liberation Sans" font-size="353px" font-weight="400"><tspan class="TextPosition" x="8210" y="10243"><tspan fill="rgb(0,0,0)" stroke="none">5</tspan></tspan></tspan></text>
 <text class="TextShape"><tspan class="TextParagraph" font-family="Liberation Sans" font-size="353px" font-weight="400"><tspan class="TextPosition" x="11338" y="10243"><tspan fill="rgb(0,0,0)" stroke="none">3</tspan></tspan></tspan></text>
 <text class="TextShape"><tspan class="TextParagraph" font-family="Liberation Sans" font-size="353px" font-weight="400"><tspan class="TextPosition" x="14466" y="10243"><tspan fill="rgb(0,0,0)" stroke="none">1</tspan></tspan></tspan></text>
 <text class="TextShape"><tspan class="TextParagraph" font-family="Liberation Sans" font-size="353px" font-weight="400"><tspan class="TextPosition" x="17450" y="10243"><tspan fill="rgb(0,0,0)" stroke="none">0.8</tspan></tspan></tspan></text>
 <text class="TextShape"><tspan class="TextParagraph" font-family="Liberation Sans" font-size="353px" font-weight="400"><tspan class="TextPosition" x="1427" y="9796"><tspan fill="rgb(0,0,0)" stroke="none">60</tspan></tspan></tspan></text>
 <text class="TextShape"><tspan class="TextParagraph" font-family="Liberation Sans" font-size="353px" font-weight="400"><tspan class="TextPosition" x="1427" y="8689"><tspan fill="rgb(0,0,0)" stroke="none">70</tspan></tspan></tspan></text>
 <text class="TextShape"><tspan class="TextParagraph" font-family="Liberation Sans" font-size="353px" font-weight="400"><tspan class="TextPosition" x="1427" y="7582"><tspan fill="rgb(0,0,0)" stroke="none">80</tspan></tspan></tspan></text>
 <text class="TextShape"><tspan class="TextParagraph" font-family="Liberation Sans" font-size="353px" font-weight="400"><tspan class="TextPosition" x="1427" y="6475"><tspan fill="rgb(0,0,0)" stroke="none">90</tspan></tspan></tspan></text>
 <text class="TextShape"><tspan class="TextParagraph" font-family="Liberation Sans" font-size="353px" font-weight="400"><tspan class="TextPosition" x="1241" y="5368"><tspan fill="rgb(0,0,0)" stroke="none">100</tspan></tspan></tspan></text>
 <text class="TextShape"><tspan class="TextParagraph" font-family="Liberation Sans" font-size="353px" font-weight="400"><tspan class="TextPosition" x="1241" y="4261"><tspan fill="rgb(0,0,0)" stroke="none">110</tspan></tspan></tspan></text>
 <text class="TextShape"><tspan class="TextParagraph" font-family="Liberation Sans" font-size="353px" font-weight="400"><tspan class="TextPosition" x="1241" y="3154"><tspan fill="rgb(0,0,0)" stroke="none">120</tspan></tspan></tspan></text>
 <text class="TextShape"><tspan class="TextParagraph" font-family="Liberation Sans" font-size="353px" font-weight="400"><tspan class="TextPosition" x="1241" y="2047"><tspan fill="rgb(0,0,0)" stroke="none">130</tspan></tspan></tspan></text>
 <text class="TextShape"><tspan class="TextParagraph" font-family="Liberation Sans" font-size="459px" font-weight="400"><tspan class="TextPosition" x="7290" y="901"><tspan fill="rgb(0,0,0)" stroke="none">Greedy initial + SA optimization</tspan></tspan></tspan></text>
 <path fill="none" stroke="rgb(0,69,134)" stroke-width="80" stroke-linejoin="round" d="M 18644,4023 L 19444,4023"/>
 <path fill="rgb(0,69,134)" stroke="none" d="M 18938,3918 L 18938,4129 19149,4129 19149,3918 18938,3918 Z"/>
 <path fill="none" stroke="rgb(0,69,134)" stroke-linejoin="round" d="M 18938,3918 L 18938,4129 19149,4129 19149,3918 18938,3918 Z"/>
 <path fill="none" stroke="rgb(255,66,14)" stroke-width="80" stroke-linejoin="round" d="M 18644,4521 L 19444,4521"/>
 <path fill="rgb(255,66,14)" stroke="none" d="M 18938,4521 L 19044,4627 19149,4521 19044,4416 18938,4521 Z"/>
 <path fill="none" stroke="rgb(255,66,14)" stroke-linejoin="round" d="M 18938,4521 L 19044,4627 19149,4521 19044,4416 18938,4521 Z"/>
 <path fill="none" stroke="rgb(255,211,32)" stroke-width="80" stroke-linejoin="round" d="M 18644,5019 L 19444,5019"/>
 <path fill="rgb(255,211,32)" stroke="none" d="M 18938,4914 L 19044,5125 19149,4914 18938,4914 Z"/>
 <path fill="none" stroke="rgb(255,211,32)" stroke-linejoin="round" d="M 18938,4914 L 19044,5125 19149,4914 18938,4914 Z"/>
 <path fill="none" stroke="rgb(87,157,28)" stroke-width="80" stroke-linejoin="round" d="M 18644,5517 L 19444,5517"/>
 <path fill="rgb(87,157,28)" stroke="none" d="M 18938,5623 L 19149,5623 19044,5412 18938,5623 Z"/>
 <path fill="none" stroke="rgb(87,157,28)" stroke-linejoin="round" d="M 18938,5623 L 19149,5623 19044,5412 18938,5623 Z"/>
 <path fill="none" stroke="rgb(126,0,33)" stroke-width="80" stroke-linejoin="round" d="M 18644,6014 L 19444,6014"/>
 <path fill="rgb(126,0,33)" stroke="none" d="M 18938,5909 L 18938,6120 19149,6014 18938,5909 Z"/>
 <path fill="none" stroke="rgb(126,0,33)" stroke-linejoin="round" d="M 18938,5909 L 18938,6120 19149,6014 18938,5909 Z"/>
 <path fill="none" stroke="rgb(131,202,255)" stroke-width="80" stroke-linejoin="round" d="M 18644,6512 L 19444,6512"/>
 <path fill="rgb(131,202,255)" stroke="none" d="M 18938,6512 L 19149,6618 19149,6407 18938,6512 Z"/>
 <path fill="none" stroke="rgb(131,202,255)" stroke-linejoin="round" d="M 18938,6512 L 19149,6618 19149,6407 18938,6512 Z"/>
 <path fill="none" stroke="rgb(49,64,4)" stroke-width="80" stroke-linejoin="round" d="M 18644,7010 L 19444,7010"/>
 <path fill="rgb(49,64,4)" stroke="none" d="M 18938,6905 L 18938,7116 19149,6905 19149,7116 18938,6905 Z"/>
 <path fill="none" stroke="rgb(49,64,4)" stroke-linejoin="round" d="M 18938,6905 L 18938,7116 19149,6905 19149,7116 18938,6905 Z"/>
 <path fill="none" stroke="rgb(174,207,0)" stroke-width="80" stroke-linejoin="round" d="M 18644,7508 L 19444,7508"/>
 <path fill="rgb(174,207,0)" stroke="none" d="M 18938,7614 L 19149,7614 18938,7403 19149,7403 18938,7614 Z"/>
 <path fill="none" stroke="rgb(174,207,0)" stroke-linejoin="round" d="M 18938,7614 L 19149,7614 18938,7403 19149,7403 18938,7614 Z"/>
 <text class="TextShape"><tspan class="TextParagraph" font-family="Liberation Sans" font-size="353px" font-weight="400"><tspan class="TextPosition" x="19544" y="4143"><tspan fill="rgb(0,0,0)" stroke="none">1B</tspan></tspan></tspan></text>
 <text class="TextShape"><tspan class="TextParagraph" font-family="Liberation Sans" font-size="353px" font-weight="400"><tspan class="TextPosition" x="19544" y="4641"><tspan fill="rgb(0,0,0)" stroke="none">1A</tspan></tspan></tspan></text>
 <text class="TextShape"><tspan class="TextParagraph" font-family="Liberation Sans" font-size="353px" font-weight="400"><tspan class="TextPosition" x="19544" y="5139"><tspan fill="rgb(0,0,0)" stroke="none">2B</tspan></tspan></tspan></text>
 <text class="TextShape"><tspan class="TextParagraph" font-family="Liberation Sans" font-size="353px" font-weight="400"><tspan class="TextPosition" x="19544" y="5637"><tspan fill="rgb(0,0,0)" stroke="none">2A</tspan></tspan></tspan></text>
 <text class="TextShape"><tspan class="TextParagraph" font-family="Liberation Sans" font-size="353px" font-weight="400"><tspan class="TextPosition" x="19544" y="6134"><tspan fill="rgb(0,0,0)" stroke="none">3B</tspan></tspan></tspan></text>
 <text class="TextShape"><tspan class="TextParagraph" font-family="Liberation Sans" font-size="353px" font-weight="400"><tspan class="TextPosition" x="19544" y="6632"><tspan fill="rgb(0,0,0)" stroke="none">3A</tspan></tspan></tspan></text>
 <text class="TextShape"><tspan class="TextParagraph" font-family="Liberation Sans" font-size="353px" font-weight="400"><tspan class="TextPosition" x="19544" y="7130"><tspan fill="rgb(0,0,0)" stroke="none">REFB</tspan></tspan></tspan></text>
 <text class="TextShape"><tspan class="TextParagraph" font-family="Liberation Sans" font-size="353px" font-weight="400"><tspan class="TextPosition" x="19544" y="7628"><tspan fill="rgb(0,0,0)" stroke="none">REFA</tspan></tspan></tspan></text>
 <text class="TextShape"><tspan class="TextParagraph" font-family="Liberation Sans" font-size="318px" font-weight="400"><tspan class="TextPosition" x="8513" y="10940"><tspan fill="rgb(0,0,0)" stroke="none">Start Temperature</tspan></tspan></tspan></text>
 <text class="TextShape" transform="translate(837,6272) rotate(-90) translate(-837,-6272)"><tspan class="TextParagraph" font-family="Liberation Sans" font-size="318px" font-weight="400"><tspan class="TextPosition" x="837" y="6272"><tspan fill="rgb(0,0,0)" stroke="none">Score</tspan></tspan></tspan></text>
</svg>