<?xml version="1.0" encoding="UTF-8"?>
<!DOCTYPE svg PUBLIC "-//W3C//DTD SVG 1.1//EN" "http://www.w3.org/Graphics/SVG/1.1/DTD/svg11.dtd">
<svg width="208mm" height="115mm" viewBox="0 0 20800 11500" version="1.1" xmlns="http://www.w3.org/2000/svg" stroke-width="28.222" stroke-linejoin="round" xml:space="preserve">
 <path fill="rgb(255,255,255)" stroke="none" d="M 10399,11534 L 0,11534 0,0 20798,0 20798,11534 10399,11534 Z"/>
 <path fill="none" stroke="rgb(179,179,179)" stroke-linejoin="round" d="M 9939,9532 L 2191,9532 2191,1375 17687,1375 17687,9532 9939,9532 Z"/>
 <path fill="none" stroke="rgb(179,179,179)" stroke-linejoin="round" d="M 17687,9531 L 2191,9531"/>
 <path fill="none" stroke="rgb(179,179,179)" stroke-linejoin="round" d="M 17687,8443 L 2191,8443"/>
 <path fill="none" stroke="rgb(179,179,179)" stroke-linejoin="round" d="M 17687,7355 L 2191,7355"/>
 <path fill="none" stroke="rgb(179,179,179)" stroke-linejoin="round" d="M 17687,6267 L 2191,6267"/>
 <path fill="none" stroke="rgb(179,179,179)" stroke-linejoin="round" d="M 17687,5181 L 2191,5181"/>
 <path fill="none" stroke="rgb(179,179,179)" stroke-linejoin="round" d="M 17687,4093 L 2191,4093"/>
 <path fill="none" stroke="rgb(179,179,179)" stroke-linejoin="round" d="M 17687,3005 L 2191,3005"/>
 <path fill="none" stroke="rgb(179,179,179)" stroke-linejoin="round" d="M 17687,1917 L 2191,1917"/>
 <path fill="none" stroke="rgb(179,179,179)" stroke-linejoin="round" d="M 2191,9681 L 2191,9531"/>
 <path fill="none" stroke="rgb(179,179,179)" stroke-linejoin="round" d="M 2191,9681 L 2191,9531"/>
 <path fill="none" stroke="rgb(179,179,179)" stroke-linejoin="round" d="M 5290,9681 L 5290,9531"/>
 <path fill="none" stroke="rgb(179,179,179)" stroke-linejoin="round" d="M 5290,9681 L 5290,9531"/>
 <path fill="none" stroke="rgb(179,179,179)" stroke-linejoin="round" d="M 8389,9681 L 8389,9531"/>
 <path fill="none" stroke="rgb(179,179,179)" stroke-linejoin="round" d="M 8389,9681 L 8389,9531"/>
 <path fill="none" stroke="rgb(179,179,179)" stroke-linejoin="round" d="M 11488,9681 L 11488,9531"/>
 <path fill="none" stroke="rgb(179,179,179)" stroke-linejoin="round" d="M 11488,9681 L 11488,9531"/>
 <path fill="none" stroke="rgb(179,179,179)" stroke-linejoin="round" d="M 14587,9681 L 14587,9531"/>
 <path fill="none" stroke="rgb(179,179,179)" stroke-linejoin="round" d="M 14587,9681 L 14587,9531"/>
 <path fill="none" stroke="rgb(179,179,179)" stroke-linejoin="round" d="M 17687,9681 L 17687,9531"/>
 <path fill="none" stroke="rgb(179,179,179)" stroke-linejoin="round" d="M 17687,9681 L 17687,9531"/>
 <path fill="none" stroke="rgb(179,179,179)" stroke-linejoin="round" d="M 2191,9531 L 17687,9531"/>
 <path fill="none" stroke="rgb(179,179,179)" stroke-linejoin="round" d="M 2041,9531 L 2191,9531"/>
 <path fill="none" stroke="rgb(179,179,179)" stroke-linejoin="round" d="M 2041,9531 L 2191,9531"/>
 <path fill="none" stroke="rgb(179,179,179)" stroke-linejoin="round" d="M 2041,8443 L 2191,8443"/>
 <path fill="none" stroke="rgb(179,179,179)" stroke-linejoin="round" d="M 2041,8443 L 2191,8443"/>
 <path fill="none" stroke="rgb(179,179,179)" stroke-linejoin="round" d="M 2041,7355 L 2191,7355"/>
 <path fill="none" stroke="rgb(179,179,179)" stroke-linejoin="round" d="M 2041,7355 L 2191,7355"/>
 <path fill="none" stroke="rgb(179,179,179)" stroke-linejoin="round" d="M 2041,6267 L 2191,6267"/>
 <path fill="none" stroke="rgb(179,179,179)" stroke-linejoin="round" d="M 2041,6267 L 2191,6267"/>
 <path fill="none" stroke="rgb(179,179,179)" stroke-linejoin="round" d="M 2041,5181 L 2191,5181"/>
 <path fill="none" stroke="rgb(179,179,179)" stroke-linejoin="round" d="M 2041,5181 L 2191,5181"/>
 <path fill="none" stroke="rgb(179,179,179)" stroke-linejoin="round" d="M 2041,4093 L 2191,4093"/>
 <path fill="none" stroke="rgb(179,179,179)" stroke-linejoin="round" d="M 2041,4093 L 2191,4093"/>
 <path fill="none" stroke="rgb(179,179,179)" stroke-linejoin="round" d="M 2041,3005 L 2191,3005"/>
 <path fill="none" stroke="rgb(179,179,179)" stroke-linejoin="round" d="M 2041,3005 L 2191,3005"/>
 <path fill="none" stroke="rgb(179,179,179)" stroke-linejoin="round" d="M 2041,1917 L 2191,1917"/>
 <path fill="none" stroke="rgb(179,179,179)" stroke-linejoin="round" d="M 2041,1917 L 2191,1917"/>
 <path fill="none" stroke="rgb(179,179,179)" stroke-linejoin="round" d="M 2191,9531 L 2191,1374"/>
 <path fill="none" stroke="rgb(0,69,134)" stroke-width="80" stroke-linejoin="round" d="M 2191,2244 L 5290,2352 8389,3440 11488,3331 14587,1809 17687,2352"/>
 <path fill="rgb(0,69,134)" stroke="none" d="M 2066,2119 L 2066,2369 2316,2369 2316,2119 2066,2119 Z"/>
 <path fill="none" stroke="rgb(0,69,134)" stroke-linejoin="round" d="M 2066,2119 L 2066,2369 2316,2369 2316,2119 2066,2119 Z"/>
 <path fill="rgb(0,69,134)" stroke="none" d="M 5165,2227 L 5165,2477 5415,2477 5415,2227 5165,2227 Z"/>
 <path fill="none" stroke="rgb(0,69,134)" stroke-linejoin="round" d="M 5165,2227 L 5165,2477 5415,2477 5415,2227 5165,2227 Z"/>
 <path fill="rgb(0,69,134)" stroke="none" d="M 8264,3315 L 8264,3565 8514,3565 8514,3315 8264,3315 Z"/>
 <path fill="none" stroke="rgb(0,69,134)" stroke-linejoin="round" d="M 8264,3315 L 8264,3565 8514,3565 8514,3315 8264,3315 Z"/>
 <path fill="rgb(0,69,134)" stroke="none" d="M 11363,3206 L 11363,3456 11613,3456 11613,3206 11363,3206 Z"/>
 <path fill="none" stroke="rgb(0,69,134)" stroke-linejoin="round" d="M 11363,3206 L 11363,3456 11613,3456 11613,3206 11363,3206 Z"/>
 <path fill="rgb(0,69,134)" stroke="none" d="M 14462,1684 L 14462,1934 14712,1934 14712,1684 14462,1684 Z"/>
 <path fill="none" stroke="rgb(0,69,134)" stroke-linejoin="round" d="M 14462,1684 L 14462,1934 14712,1934 14712,1684 14462,1684 Z"/>
 <path fill="rgb(0,69,134)" stroke="none" d="M 17562,2227 L 17562,2477 17812,2477 17812,2227 17562,2227 Z"/>
 <path fill="none" stroke="rgb(0,69,134)" stroke-linejoin="round" d="M 17562,2227 L 17562,2477 17812,2477 17812,2227 17562,2227 Z"/>
 <path fill="none" stroke="rgb(255,66,14)" stroke-width="80" stroke-linejoin="round" d="M 2191,6159 L 5290,5616 8389,5507 11488,6811 14587,4963 17687,8116"/>
 <path fill="rgb(255,66,14)" stroke="none" d="M 2066,6159 L 2191,6284 2316,6159 2191,6034 2066,6159 Z"/>
 <path fill="none" stroke="rgb(255,66,14)" stroke-linejoin="round" d="M 2066,6159 L 2191,6284 2316,6159 2191,6034 2066,6159 Z"/>
 <path fill="rgb(255,66,14)" stroke="none" d="M 5165,5616 L 5290,5741 5415,5616 5290,5491 5165,5616 Z"/>
 <path fill="none" stroke="rgb(255,66,14)" stroke-linejoin="round" d="M 5165,5616 L 5290,5741 5415,5616 5290,5491 5165,5616 Z"/>
 <path fill="rgb(255,66,14)" stroke="none" d="M 8264,5507 L 8389,5632 8514,5507 8389,5382 8264,5507 Z"/>
 <path fill="none" stroke="rgb(255,66,14)" stroke-linejoin="round" d="M 8264,5507 L 8389,5632 8514,5507 8389,5382 8264,5507 Z"/>
 <path fill="rgb(255,66,14)" stroke="none" d="M 11363,6811 L 11488,6936 11613,6811 11488,6686 11363,6811 Z"/>
 <path fill="none" stroke="rgb(255,66,14)" stroke-linejoin="round" d="M 11363,6811 L 11488,6936 11613,6811 11488,6686 11363,6811 Z"/>
 <path fill="rgb(255,66,14)" stroke="none" d="M 14462,4963 L 14587,5088 14712,4963 14587,4838 14462,4963 Z"/>
 <path fill="none" stroke="rgb(255,66,14)" stroke-linejoin="round" d="M 14462,4963 L 14587,5088 14712,4963 14587,4838 14462,4963 Z"/>
 <path fill="rgb(255,66,14)" stroke="none" d="M 17562,8116 L 17687,8241 17812,8116 17687,7991 17562,8116 Z"/>
 <path fill="none" stroke="rgb(255,66,14)" stroke-linejoin="round" d="M 17562,8116 L 17687,8241 17812,8116 17687,7991 17562,8116 Z"/>
 <path fill="none" stroke="rgb(255,211,32)" stroke-width="80" stroke-linejoin="round" d="M 2191,4637 L 5290,3658 8389,3875 11488,2679 14587,3875 17687,3440"/>
 <path fill="rgb(255,211,32)" stroke="none" d="M 2066,4512 L 2191,4762 2316,4512 2066,4512 Z"/>
 <path fill="none" stroke="rgb(255,211,32)" stroke-linejoin="round" d="M 2066,4512 L 2191,4762 2316,4512 2066,4512 Z"/>
 <path fill="rgb(255,211,32)" stroke="none" d="M 5165,3533 L 5290,3783 5415,3533 5165,3533 Z"/>
 <path fill="none" stroke="rgb(255,211,32)" stroke-linejoin="round" d="M 5165,3533 L 5290,3783 5415,3533 5165,3533 Z"/>
 <path fill="rgb(255,211,32)" stroke="none" d="M 8264,3750 L 8389,4000 8514,3750 8264,3750 Z"/>
 <path fill="none" stroke="rgb(255,211,32)" stroke-linejoin="round" d="M 8264,3750 L 8389,4000 8514,3750 8264,3750 Z"/>
 <path fill="rgb(255,211,32)" stroke="none" d="M 11363,2554 L 11488,2804 11613,2554 11363,2554 Z"/>
 <path fill="none" stroke="rgb(255,211,32)" stroke-linejoin="round" d="M 11363,2554 L 11488,2804 11613,2554 11363,2554 Z"/>
 <path fill="rgb(255,211,32)" stroke="none" d="M 14462,3750 L 14587,4000 14712,3750 14462,3750 Z"/>
 <path fill="none" stroke="rgb(255,211,32)" stroke-linejoin="round" d="M 14462,3750 L 14587,4000 14712,3750 14462,3750 Z"/>
 <path fill="rgb(255,211,32)" stroke="none" d="M 17562,3315 L 17687,3565 17812,3315 17562,3315 Z"/>
 <path fill="none" stroke="rgb(255,211,32)" stroke-linejoin="round" d="M 17562,3315 L 17687,3565 17812,3315 17562,3315 Z"/>
 <path fill="none" stroke="rgb(87,157,28)" stroke-width="80" stroke-linejoin="round" d="M 2191,4637 L 5290,3658 8389,3875 11488,2679 14587,3875 17687,3440"/>
 <path fill="rgb(87,157,28)" stroke="none" d="M 2066,4762 L 2316,4762 2191,4512 2066,4762 Z"/>
 <path fill="none" stroke="rgb(87,157,28)" stroke-linejoin="round" d="M 2066,4762 L 2316,4762 2191,4512 2066,4762 Z"/>
 <path fill="rgb(87,157,28)" stroke="none" d="M 5165,3783 L 5415,3783 5290,3533 5165,3783 Z"/>
 <path fill="none" stroke="rgb(87,157,28)" stroke-linejoin="round" d="M 5165,3783 L 5415,3783 5290,3533 5165,3783 Z"/>
 <path fill="rgb(87,157,28)" stroke="none" d="M 8264,4000 L 8514,4000 8389,3750 8264,4000 Z"/>
 <path fill="none" stroke="rgb(87,157,28)" stroke-linejoin="round" d="M 8264,4000 L 8514,4000 8389,3750 8264,4000 Z"/>
 <path fill="rgb(87,157,28)" stroke="none" d="M 11363,2804 L 11613,2804 11488,2554 11363,2804 Z"/>
 <path fill="none" stroke="rgb(87,157,28)" stroke-linejoin="round" d="M 11363,2804 L 11613,2804 11488,2554 11363,2804 Z"/>
 <path fill="rgb(87,157,28)" stroke="none" d="M 14462,4000 L 14712,4000 14587,3750 14462,4000 Z"/>
 <path fill="none" stroke="rgb(87,157,28)" stroke-linejoin="round" d="M 14462,4000 L 14712,4000 14587,3750 14462,4000 Z"/>
 <path fill="rgb(87,157,28)" stroke="none" d="M 17562,3565 L 17812,3565 17687,3315 17562,3565 Z"/>
 <path fill="none" stroke="rgb(87,157,28)" stroke-linejoin="round" d="M 17562,3565 L 17812,3565 17687,3315 17562,3565 Z"/>
 <path fill="none" stroke="rgb(126,0,33)" stroke-width="80" stroke-linejoin="round" d="M 2191,2679 L 5290,4745 8389,4637 11488,5072 14587,3658 17687,2461"/>
 <path fill="rgb(126,0,33)" stroke="none" d="M 2066,2554 L 2066,2804 2316,2679 2066,2554 Z"/>
 <path fill="none" stroke="rgb(126,0,33)" stroke-linejoin="round" d="M 2066,2554 L 2066,2804 2316,2679 2066,2554 Z"/>
 <path fill="rgb(126,0,33)" stroke="none" d="M 5165,4620 L 5165,4870 5415,4745 5165,4620 Z"/>
 <path fill="none" stroke="rgb(126,0,33)" stroke-linejoin="round" d="M 5165,4620 L 5165,4870 5415,4745 5165,4620 Z"/>
 <path fill="rgb(126,0,33)" stroke="none" d="M 8264,4512 L 8264,4762 8514,4637 8264,4512 Z"/>
 <path fill="none" stroke="rgb(126,0,33)" stroke-linejoin="round" d="M 8264,4512 L 8264,4762 8514,4637 8264,4512 Z"/>
 <path fill="rgb(126,0,33)" stroke="none" d="M 11363,4947 L 11363,5197 11613,5072 11363,4947 Z"/>
 <path fill="none" stroke="rgb(126,0,33)" stroke-linejoin="round" d="M 11363,4947 L 11363,5197 11613,5072 11363,4947 Z"/>
 <path fill="rgb(126,0,33)" stroke="none" d="M 14462,3533 L 14462,3783 14712,3658 14462,3533 Z"/>
 <path fill="none" stroke="rgb(126,0,33)" stroke-linejoin="round" d="M 14462,3533 L 14462,3783 14712,3658 14462,3533 Z"/>
 <path fill="rgb(126,0,33)" stroke="none" d="M 17562,2336 L 17562,2586 17812,2461 17562,2336 Z"/>
 <path fill="none" stroke="rgb(126,0,33)" stroke-linejoin="round" d="M 17562,2336 L 17562,2586 17812,2461 17562,2336 Z"/>
 <path fill="none" stroke="rgb(131,202,255)" stroke-width="80" stroke-linejoin="round" d="M 2191,4963 L 5290,5941 8389,7464 11488,6811 14587,5724 17687,5181"/>
 <path fill="rgb(131,202,255)" stroke="none" d="M 2066,4963 L 2316,5088 2316,4838 2066,4963 Z"/>
 <path fill="none" stroke="rgb(131,202,255)" stroke-linejoin="round" d="M 2066,4963 L 2316,5088 2316,4838 2066,4963 Z"/>
 <path fill="rgb(131,202,255)" stroke="none" d="M 5165,5941 L 5415,6066 5415,5816 5165,5941 Z"/>
 <path fill="none" stroke="rgb(131,202,255)" stroke-linejoin="round" d="M 5165,5941 L 5415,6066 5415,5816 5165,5941 Z"/>
 <path fill="rgb(131,202,255)" stroke="none" d="M 8264,7464 L 8514,7589 8514,7339 8264,7464 Z"/>
 <path fill="none" stroke="rgb(131,202,255)" stroke-linejoin="round" d="M 8264,7464 L 8514,7589 8514,7339 8264,7464 Z"/>
 <path fill="rgb(131,202,255)" stroke="none" d="M 11363,6811 L 11613,6936 11613,6686 11363,6811 Z"/>
 <path fill="none" stroke="rgb(131,202,255)" stroke-linejoin="round" d="M 11363,6811 L 11613,6936 11613,6686 11363,6811 Z"/>
 <path fill="rgb(131,202,255)" stroke="none" d="M 14462,5724 L 14712,5848 14712,5599 14462,5724 Z"/>
 <path fill="none" stroke="rgb(131,202,255)" stroke-linejoin="round" d="M 14462,5724 L 14712,5848 14712,5599 14462,5724 Z"/>
 <path fill="rgb(131,202,255)" stroke="none" d="M 17562,5181 L 17812,5306 17812,5056 17562,5181 Z"/>
 <path fill="none" stroke="rgb(131,202,255)" stroke-linejoin="round" d="M 17562,5181 L 17812,5306 17812,5056 17562,5181 Z"/>
 <path fill="none" stroke="rgb(49,64,4)" stroke-width="80" stroke-linejoin="round" d="M 2191,4093 L 5290,4093 8389,4093 11488,4093 14587,4093 17687,4093"/>
 <path fill="rgb(49,64,4)" stroke="none" d="M 2066,3968 L 2066,4218 2316,3968 2316,4218 2066,3968 Z"/>
 <path fill="none" stroke="rgb(49,64,4)" stroke-linejoin="round" d="M 2066,3968 L 2066,4218 2316,3968 2316,4218 2066,3968 Z"/>
 <path fill="rgb(49,64,4)" stroke="none" d="M 5165,3968 L 5165,4218 5415,3968 5415,4218 5165,3968 Z"/>
 <path fill="none" stroke="rgb(49,64,4)" stroke-linejoin="round" d="M 5165,3968 L 5165,4218 5415,3968 5415,4218 5165,3968 Z"/>
 <path fill="rgb(49,64,4)" stroke="none" d="M 8264,3968 L 8264,4218 8514,3968 8514,4218 8264,3968 Z"/>
 <path fill="none" stroke="rgb(49,64,4)" stroke-linejoin="round" d="M 8264,3968 L 8264,4218 8514,3968 8514,4218 8264,3968 Z"/>
 <path fill="rgb(49,64,4)" stroke="none" d="M 11363,3968 L 11363,4218 11613,3968 11613,4218 11363,3968 Z"/>
 <path fill="none" stroke="rgb(49,64,4)" stroke-linejoin="round" d="M 11363,3968 L 11363,4218 11613,3968 11613,4218 11363,3968 Z"/>
 <path fill="rgb(49,64,4)" stroke="none" d="M 14462,3968 L 14462,4218 14712,3968 14712,4218 14462,3968 Z"/>
 <path fill="none" stroke="rgb(49,64,4)" stroke-linejoin="round" d="M 14462,3968 L 14462,4218 14712,3968 14712,4218 14462,3968 Z"/>
 <path fill="rgb(49,64,4)" stroke="none" d="M 17562,3968 L 17562,4218 17812,3968 17812,4218 17562,3968 Z"/>
 <path fill="none" stroke="rgb(49,64,4)" stroke-linejoin="round" d="M 17562,3968 L 17562,4218 17812,3968 17812,4218 17562,3968 Z"/>
 <path fill="none" stroke="rgb(174,207,0)" stroke-width="80" stroke-linejoin="round" d="M 2191,7790 L 5290,9204 8389,8769 11488,8225 14587,8008 17687,8008"/>
 <path fill="rgb(174,207,0)" stroke="none" d="M 2066,7915 L 2316,7915 2066,7665 2316,7665 2066,7915 Z"/>
 <path fill="none" stroke="rgb(174,207,0)" stroke-linejoin="round" d="M 2066,7915 L 2316,7915 2066,7665 2316,7665 2066,7915 Z"/>
 <path fill="rgb(174,207,0)" stroke="none" d="M 5165,9329 L 5415,9329 5165,9079 5415,9079 5165,9329 Z"/>
 <path fill="none" stroke="rgb(174,207,0)" stroke-linejoin="round" d="M 5165,9329 L 5415,9329 5165,9079 5415,9079 5165,9329 Z"/>
 <path fill="rgb(174,207,0)" stroke="none" d="M 8264,8894 L 8514,8894 8264,8644 8514,8644 8264,8894 Z"/>
 <path fill="none" stroke="rgb(174,207,0)" stroke-linejoin="round" d="M 8264,8894 L 8514,8894 8264,8644 8514,8644 8264,8894 Z"/>
 <path fill="rgb(174,207,0)" stroke="none" d="M 11363,8350 L 11613,8350 11363,8100 11613,8100 11363,8350 Z"/>
 <path fill="none" stroke="rgb(174,207,0)" stroke-linejoin="round" d="M 11363,8350 L 11613,8350 11363,8100 11613,8100 11363,8350 Z"/>
 <path fill="rgb(174,207,0)" stroke="none" d="M 14462,8133 L 14712,8133 14462,7883 14712,7883 14462,8133 Z"/>
 <path fill="none" stroke="rgb(174,207,0)" stroke-linejoin="round" d="M 14462,8133 L 14712,8133 14462,7883 14712,7883 14462,8133 Z"/>
 <path fill="rgb(174,207,0)" stroke="none" d="M 17562,8133 L 17812,8133 17562,7883 17812,7883 17562,8133 Z"/>
 <path fill="none" stroke="rgb(174,207,0)" stroke-linejoin="round" d="M 17562,8133 L 17812,8133 17562,7883 17812,7883 17562,8133 Z"/>
 <text class="TextShape"><tspan class="TextParagraph" font-family="Liberation Sans" font-size="353px" font-weight="400"><tspan class="TextPosition" x="2006" y="10099"><tspan fill="rgb(0,0,0)" stroke="none">10</tspan></tspan></tspan></text>
 <text class="TextShape"><tspan class="TextParagraph" font-family="Liberation Sans" font-size="353px" font-weight="400"><tspan class="TextPosition" x="5197" y="10099"><tspan fill="rgb(0,0,0)" stroke="none">7</tspan></tspan></tspan></text>
 <text class="TextShape"><tspan class="TextParagraph" font-family="Liberation Sans" font-size="353px" font-weight="400"><tspan class="TextPosition" x="8296" y="10099"><tspan fill="rgb(0,0,0)" stroke="none">5</tspan></tspan></tspan></text>
 <text class="TextShape"><tspan class="TextParagraph" font-family="Liberation Sans" font-size="353px" font-weight="400"><tspan class="TextPosition" x="11396" y="10099"><tspan fill="rgb(0,0,0)" stroke="none">3</tspan></tspan></tspan></text>
 <text class="TextShape"><tspan class="TextParagraph" font-family="Liberation Sans" font-size="353px" font-weight="400"><tspan class="TextPosition" x="14495" y="10099"><tspan fill="rgb(0,0,0)" stroke="none">1</tspan></tspan></tspan></text>
 <text class="TextShape"><tspan class="TextParagraph" font-family="Liberation Sans" font-size="353px" font-weight="400"><tspan class="TextPosition" x="17450" y="10099"><tspan fill="rgb(0,0,0)" stroke="none">0.8</tspan></tspan></tspan></text>
 <text class="TextShape"><tspan class="TextParagraph" font-family="Liberation Sans" font-size="353px" font-weight="400"><tspan class="TextPosition" x="1571" y="9652"><tspan fill="rgb(0,0,0)" stroke="none">60</tspan></tspan></tspan></text>
 <text class="TextShape"><tspan class="TextParagraph" font-family="Liberation Sans" font-size="353px" font-weight="400"><tspan class="TextPosition" x="1571" y="8564"><tspan fill="rgb(0,0,0)" stroke="none">70</tspan></tspan></tspan></text>
 <text class="TextShape"><tspan class="TextParagraph" font-family="Liberation Sans" font-size="353px" font-weight="400"><tspan class="TextPosition" x="1571" y="7476"><tspan fill="rgb(0,0,0)" stroke="none">80</tspan></tspan></tspan></text>
 <text class="TextShape"><tspan class="TextParagraph" font-family="Liberation Sans" font-size="353px" font-weight="400"><tspan class="TextPosition" x="1571" y="6388"><tspan fill="rgb(0,0,0)" stroke="none">90</tspan></tspan></tspan></text>
 <text class="TextShape"><tspan class="TextParagraph" font-family="Liberation Sans" font-size="353px" font-weight="400"><tspan class="TextPosition" x="1385" y="5301"><tspan fill="rgb(0,0,0)" stroke="none">100</tspan></tspan></tspan></text>
 <text class="TextShape"><tspan class="TextParagraph" font-family="Liberation Sans" font-size="353px" font-weight="400"><tspan class="TextPosition" x="1385" y="4213"><tspan fill="rgb(0,0,0)" stroke="none">110</tspan></tspan></tspan></text>
 <text class="TextShape"><tspan class="TextParagraph" font-family="Liberation Sans" font-size="353px" font-weight="400"><tspan class="TextPosition" x="1385" y="3125"><tspan fill="rgb(0,0,0)" stroke="none">120</tspan></tspan></tspan></text>
 <text class="TextShape"><tspan class="TextParagraph" font-family="Liberation Sans" font-size="353px" font-weight="400"><tspan class="TextPosition" x="1385" y="2037"><tspan fill="rgb(0,0,0)" stroke="none">130</tspan></tspan></tspan></text>
 <text class="TextShape"><tspan class="TextParagraph" font-family="Liberation Sans" font-size="459px" font-weight="400"><tspan class="TextPosition" x="7290" y="901"><tspan fill="rgb(0,0,0)" stroke="none">Greedy initial + SA optimization</tspan></tspan></tspan></text>
 <path fill="none" stroke="rgb(0,69,134)" stroke-width="80" stroke-linejoin="round" d="M 18644,4023 L 19444,4023"/>
 <path fill="rgb(0,69,134)" stroke="none" d="M 18938,3918 L 18938,4129 19149,4129 19149,3918 18938,3918 Z"/>
 <path fill="none" stroke="rgb(0,69,134)" stroke-linejoin="round" d="M 18938,3918 L 18938,4129 19149,4129 19149,3918 18938,3918 Z"/>
 <path fill="none" stroke="rgb(255,66,14)" stroke-width="80" stroke-linejoin="round" d="M 18644,4521 L 19444,4521"/>
 <path fill="rgb(255,66,14)" stroke="none" d="M 18938,4521 L 19044,4627 19149,4521 19044,4416 18938,4521 Z"/>
 <path fill="none" stroke="rgb(255,66,14)" stroke-linejoin="round" d="M 18938,4521 L 19044,4627 19149,4521 19044,4416 18938,4521 Z"/>
 <path fill="none" stroke="rgb(255,211,32)" stroke-width="80" stroke-linejoin="round" d="M 18644,5019 L 19444,5019"/>
 <path fill="rgb(255,211,32)" stroke="none" d="M 18938,4914 L 19044,5125 19149,4914 18938,4914 Z"/>
 <path fill="none" stroke="rgb(255,211,32)" stroke-linejoin="round" d="M 18938,4914 L 19044,5125 19149,4914 18938,4914 Z"/>
 <path fill="none" stroke="rgb(87,157,28)" stroke-width="80" stroke-linejoin="round" d="M 18644,5517 L 19444,5517"/>
 <path fill="rgb(87,157,28)" stroke="none" d="M 18938,5623 L 19149,5623 19044,5412 18938,5623 Z"/>
 <path fill="none" stroke="rgb(87,157,28)" stroke-linejoin="round" d="M 18938,5623 L 19149,5623 19044,5412 18938,5623 Z"/>
 <path fill="none" stroke="rgb(126,0,33)" stroke-width="80" stroke-linejoin="round" d="M 18644,6014 L 19444,6014"/>
 <path fill="rgb(126,0,33)" stroke="none" d="M 18938,5909 L 18938,6120 19149,6014 18938,5909 Z"/>
 <path fill="none" stroke="rgb(126,0,33)" stroke-linejoin="round" d="M 18938,5909 L 18938,6120 19149,6014 18938,5909 Z"/>
 <path fill="none" stroke="rgb(131,202,255)" stroke-width="80" stroke-linejoin="round" d="M 18644,6512 L 19444,6512"/>
 <path fill="rgb(131,202,255)" stroke="none" d="M 18938,6512 L 19149,6618 19149,6407 18938,6512 Z"/>
 <path fill="none" stroke="rgb(131,202,255)" stroke-linejoin="round" d="M 18938,6512 L 19149,6618 19149,6407 18938,6512 Z"/>
 <path fill="none" stroke="rgb(49,64,4)" stroke-width="80" stroke-linejoin="round" d="M 18644,7010 L 19444,7010"/>
 <path fill="rgb(49,64,4)" stroke="none" d="M 18938,6905 L 18938,7116 19149,6905 19149,7116 18938,6905 Z"/>
 <path fill="none" stroke="rgb(49,64,4)" stroke-linejoin="round" d="M 18938,6905 L 18938,7116 19149,6905 19149,7116 18938,6905 Z"/>
 <path fill="none" stroke="rgb(174,207,0)" stroke-width="80" stroke-linejoin="round" d="M 18644,7508 L 19444,7508"/>
 <path fill="rgb(174,207,0)" stroke="none" d="M 18938,7614 L 19149,7614 18938,7403 19149,7403 18938,7614 Z"/>
 <path fill="none" stroke="rgb(174,207,0)" stroke-linejoin="round" d="M 18938,7614 L 19149,7614 18938,7403 19149,7403 18938,7614 Z"/>
 <text class="TextShape"><tspan class="TextParagraph" font-family="Liberation Sans" font-size="353px" font-weight="400"><tspan class="TextPosition" x="19544" y="4143"><tspan fill="rgb(0,0,0)" stroke="none">1B</tspan></tspan></tspan></text>
 <text class="TextShape"><tspan class="TextParagraph" font-family="Liberation Sans" font-size="353px" font-weight="400"><tspan class="TextPosition" x="19544" y="4641"><tspan fill="rgb(0,0,0)" stroke="none">1A</tspan></tspan></tspan></text>
 <text class="TextShape"><tspan class="TextParagraph" font-family="Liberation Sans" font-size="353px" font-weight="400"><tspan class="TextPosition" x="19544" y="5139"><tspan fill="rgb(0,0,0)" stroke="none">2B</tspan></tspan></tspan></text>
 <text class="TextShape"><tspan class="TextParagraph" font-family="Liberation Sans" font-size="353px" font-weight="400"><tspan class="TextPosition" x="19544" y="5637"><tspan fill="rgb(0,0,0)" stroke="none">2A</tspan></tspan></tspan></text>
 <text class="TextShape"><tspan class="TextParagraph" font-family="Liberation Sans" font-size="353px" font-weight="400"><tspan class="TextPosition" x="19544" y="6134"><tspan fill="rgb(0,0,0)" stroke="none">3B</tspan></tspan></tspan></text>
 <text class="TextShape"><tspan class="TextParagraph" font-family="Liberation Sans" font-size="353px" font-weight="400"><tspan class="TextPosition" x="19544" y="6632"><tspan fill="rgb(0,0,0)" stroke="none">3A</tspan></tspan></tspan></text>
 <text class="TextShape"><tspan class="TextParagraph" font-family="Liberation Sans" font-size="353px" font-weight="400"><tspan class="TextPosition" x="19544" y="7130"><tspan fill="rgb(0,0,0)" stroke="none">REFB</tspan></tspan></tspan></text>
 <text class="TextShape"><tspan class="TextParagraph" font-family="Liberation Sans" font-size="353px" font-weight="400"><tspan class="TextPosition" x="19544" y="7628"><tspan fill="rgb(0,0,0)" stroke="none">REFA</tspan></tspan></tspan></text>
 <text class="TextShape"><tspan class="TextParagraph" font-family="Liberation Sans" font-size="423px" font-weight="400"><tspan class="TextPosition" x="8188" y="10907"><tspan fill="rgb(0,0,0)" stroke="none">Start Temperature</tspan></tspan></tspan></text>
 <text class="TextShape" transform="translate(948,6332) rotate(-90) translate(-948,-6332)"><tspan class="TextParagraph" font-family="Liberation Sans" font-size="423px" font-weight="400"><tspan class="TextPosition" x="948" y="6332"><tspan fill="rgb(0,0,0)" stroke="none">Score</tspan></tspan></tspan></text>
</svg>