<?xml version="1.0" encoding="UTF-8"?>
<!DOCTYPE svg PUBLIC "-//W3C//DTD SVG 1.1//EN" "http://www.w3.org/Graphics/SVG/1.1/DTD/svg11.dtd">
<svg width="160mm" height="90mm" viewBox="0 0 16000 9000" version="1.1" xmlns="http://www.w3.org/2000/svg" stroke-width="28.222" stroke-linejoin="round" xml:space="preserve">
 <path fill="rgb(255,255,255)" stroke="none" d="M 7999,9004 L 0,9004 0,0 15997,0 15997,9004 7999,9004 Z"/>
 <path fill="none" stroke="rgb(179,179,179)" stroke-linejoin="round" d="M 7546,7086 L 1098,7086 1098,259 13993,259 13993,7086 7546,7086 Z"/>
 <path fill="none" stroke="rgb(179,179,179)" stroke-linejoin="round" d="M 13993,7085 L 1098,7085"/>
 <path fill="none" stroke="rgb(179,179,179)" stroke-linejoin="round" d="M 13993,6231 L 1098,6231"/>
 <path fill="none" stroke="rgb(179,179,179)" stroke-linejoin="round" d="M 13993,5378 L 1098,5378"/>
 <path fill="none" stroke="rgb(179,179,179)" stroke-linejoin="round" d="M 13993,4524 L 1098,4524"/>
 <path fill="none" stroke="rgb(179,179,179)" stroke-linejoin="round" d="M 13993,3672 L 1098,3672"/>
 <path fill="none" stroke="rgb(179,179,179)" stroke-linejoin="round" d="M 13993,2818 L 1098,2818"/>
 <path fill="none" stroke="rgb(179,179,179)" stroke-linejoin="round" d="M 13993,1965 L 1098,1965"/>
 <path fill="none" stroke="rgb(179,179,179)" stroke-linejoin="round" d="M 13993,1111 L 1098,1111"/>
 <path fill="none" stroke="rgb(179,179,179)" stroke-linejoin="round" d="M 13993,258 L 1098,258"/>
 <path fill="none" stroke="rgb(179,179,179)" stroke-linejoin="round" d="M 1098,7235 L 1098,7085"/>
 <path fill="none" stroke="rgb(179,179,179)" stroke-linejoin="round" d="M 1098,7235 L 1098,7085"/>
 <path fill="none" stroke="rgb(179,179,179)" stroke-linejoin="round" d="M 2270,7235 L 2270,7085"/>
 <path fill="none" stroke="rgb(179,179,179)" stroke-linejoin="round" d="M 2270,7235 L 2270,7085"/>
 <path fill="none" stroke="rgb(179,179,179)" stroke-linejoin="round" d="M 3442,7235 L 3442,7085"/>
 <path fill="none" stroke="rgb(179,179,179)" stroke-linejoin="round" d="M 3442,7235 L 3442,7085"/>
 <path fill="none" stroke="rgb(179,179,179)" stroke-linejoin="round" d="M 4615,7235 L 4615,7085"/>
 <path fill="none" stroke="rgb(179,179,179)" stroke-linejoin="round" d="M 4615,7235 L 4615,7085"/>
 <path fill="none" stroke="rgb(179,179,179)" stroke-linejoin="round" d="M 5787,7235 L 5787,7085"/>
 <path fill="none" stroke="rgb(179,179,179)" stroke-linejoin="round" d="M 5787,7235 L 5787,7085"/>
 <path fill="none" stroke="rgb(179,179,179)" stroke-linejoin="round" d="M 6959,7235 L 6959,7085"/>
 <path fill="none" stroke="rgb(179,179,179)" stroke-linejoin="round" d="M 6959,7235 L 6959,7085"/>
 <path fill="none" stroke="rgb(179,179,179)" stroke-linejoin="round" d="M 8131,7235 L 8131,7085"/>
 <path fill="none" stroke="rgb(179,179,179)" stroke-linejoin="round" d="M 8131,7235 L 8131,7085"/>
 <path fill="none" stroke="rgb(179,179,179)" stroke-linejoin="round" d="M 9303,7235 L 9303,7085"/>
 <path fill="none" stroke="rgb(179,179,179)" stroke-linejoin="round" d="M 9303,7235 L 9303,7085"/>
 <path fill="none" stroke="rgb(179,179,179)" stroke-linejoin="round" d="M 10475,7235 L 10475,7085"/>
 <path fill="none" stroke="rgb(179,179,179)" stroke-linejoin="round" d="M 10475,7235 L 10475,7085"/>
 <path fill="none" stroke="rgb(179,179,179)" stroke-linejoin="round" d="M 11648,7235 L 11648,7085"/>
 <path fill="none" stroke="rgb(179,179,179)" stroke-linejoin="round" d="M 11648,7235 L 11648,7085"/>
 <path fill="none" stroke="rgb(179,179,179)" stroke-linejoin="round" d="M 12820,7235 L 12820,7085"/>
 <path fill="none" stroke="rgb(179,179,179)" stroke-linejoin="round" d="M 12820,7235 L 12820,7085"/>
 <path fill="none" stroke="rgb(179,179,179)" stroke-linejoin="round" d="M 13993,7235 L 13993,7085"/>
 <path fill="none" stroke="rgb(179,179,179)" stroke-linejoin="round" d="M 13993,7235 L 13993,7085"/>
 <path fill="none" stroke="rgb(179,179,179)" stroke-linejoin="round" d="M 1098,7085 L 13993,7085"/>
 <path fill="none" stroke="rgb(179,179,179)" stroke-linejoin="round" d="M 948,7085 L 1098,7085"/>
 <path fill="none" stroke="rgb(179,179,179)" stroke-linejoin="round" d="M 948,7085 L 1098,7085"/>
 <path fill="none" stroke="rgb(179,179,179)" stroke-linejoin="round" d="M 948,6231 L 1098,6231"/>
 <path fill="none" stroke="rgb(179,179,179)" stroke-linejoin="round" d="M 948,6231 L 1098,6231"/>
 <path fill="none" stroke="rgb(179,179,179)" stroke-linejoin="round" d="M 948,5378 L 1098,5378"/>
 <path fill="none" stroke="rgb(179,179,179)" stroke-linejoin="round" d="M 948,5378 L 1098,5378"/>
 <path fill="none" stroke="rgb(179,179,179)" stroke-linejoin="round" d="M 948,4524 L 1098,4524"/>
 <path fill="none" stroke="rgb(179,179,179)" stroke-linejoin="round" d="M 948,4524 L 1098,4524"/>
 <path fill="none" stroke="rgb(179,179,179)" stroke-linejoin="round" d="M 948,3672 L 1098,3672"/>
 <path fill="none" stroke="rgb(179,179,179)" stroke-linejoin="round" d="M 948,3672 L 1098,3672"/>
 <path fill="none" stroke="rgb(179,179,179)" stroke-linejoin="round" d="M 948,2818 L 1098,2818"/>
 <path fill="none" stroke="rgb(179,179,179)" stroke-linejoin="round" d="M 948,2818 L 1098,2818"/>
 <path fill="none" stroke="rgb(179,179,179)" stroke-linejoin="round" d="M 948,1965 L 1098,1965"/>
 <path fill="none" stroke="rgb(179,179,179)" stroke-linejoin="round" d="M 948,1965 L 1098,1965"/>
 <path fill="none" stroke="rgb(179,179,179)" stroke-linejoin="round" d="M 948,1111 L 1098,1111"/>
 <path fill="none" stroke="rgb(179,179,179)" stroke-linejoin="round" d="M 948,1111 L 1098,1111"/>
 <path fill="none" stroke="rgb(179,179,179)" stroke-linejoin="round" d="M 948,258 L 1098,258"/>
 <path fill="none" stroke="rgb(179,179,179)" stroke-linejoin="round" d="M 948,258 L 1098,258"/>
 <path fill="none" stroke="rgb(179,179,179)" stroke-linejoin="round" d="M 1098,7085 L 1098,258"/>
 <path fill="rgb(0,69,134)" stroke="none" d="M 13113,7085 L 13699,7085 13699,3458 13113,3458 13113,7085 Z"/>
 <path fill="rgb(0,69,134)" stroke="none" d="M 11941,7085 L 12527,7085 12527,1154 11941,1154 11941,7085 Z"/>
 <path fill="rgb(0,69,134)" stroke="none" d="M 10769,7085 L 11355,7085 11355,3842 10769,3842 10769,7085 Z"/>
 <path fill="rgb(0,69,134)" stroke="none" d="M 9596,7085 L 10182,7085 10182,4482 9596,4482 9596,7085 Z"/>
 <path fill="rgb(0,69,134)" stroke="none" d="M 8424,7085 L 9010,7085 9010,1580 8424,1580 8424,7085 Z"/>
 <path fill="rgb(0,69,134)" stroke="none" d="M 7252,7085 L 7839,7085 7839,3672 7252,3672 7252,7085 Z"/>
 <path fill="rgb(0,69,134)" stroke="none" d="M 6080,7085 L 6666,7085 6666,4440 6080,4440 6080,7085 Z"/>
 <path fill="rgb(0,69,134)" stroke="none" d="M 4908,7085 L 5494,7085 5494,1495 4908,1495 4908,7085 Z"/>
 <path fill="rgb(0,69,134)" stroke="none" d="M 3735,7085 L 4322,7085 4322,3586 3735,3586 3735,7085 Z"/>
 <path fill="rgb(0,69,134)" stroke="none" d="M 2563,7085 L 3149,7085 3149,3970 2563,3970 2563,7085 Z"/>
 <path fill="rgb(0,69,134)" stroke="none" d="M 1391,7085 L 1977,7085 1977,2391 1391,2391 1391,7085 Z"/>
 <text class="TextShape"><tspan class="TextParagraph" font-family="Liberation Sans" font-size="353px" font-weight="400"><tspan class="TextPosition" x="663" y="7206"><tspan fill="rgb(0,0,0)" stroke="none">0</tspan></tspan></tspan></text>
 <text class="TextShape"><tspan class="TextParagraph" font-family="Liberation Sans" font-size="353px" font-weight="400"><tspan class="TextPosition" x="478" y="6352"><tspan fill="rgb(0,0,0)" stroke="none">20</tspan></tspan></tspan></text>
 <text class="TextShape"><tspan class="TextParagraph" font-family="Liberation Sans" font-size="353px" font-weight="400"><tspan class="TextPosition" x="478" y="5499"><tspan fill="rgb(0,0,0)" stroke="none">40</tspan></tspan></tspan></text>
 <text class="TextShape"><tspan class="TextParagraph" font-family="Liberation Sans" font-size="353px" font-weight="400"><tspan class="TextPosition" x="478" y="4645"><tspan fill="rgb(0,0,0)" stroke="none">60</tspan></tspan></tspan></text>
 <text class="TextShape"><tspan class="TextParagraph" font-family="Liberation Sans" font-size="353px" font-weight="400"><tspan class="TextPosition" x="478" y="3792"><tspan fill="rgb(0,0,0)" stroke="none">80</tspan></tspan></tspan></text>
 <text class="TextShape"><tspan class="TextParagraph" font-family="Liberation Sans" font-size="353px" font-weight="400"><tspan class="TextPosition" x="292" y="2938"><tspan fill="rgb(0,0,0)" stroke="none">100</tspan></tspan></tspan></text>
 <text class="TextShape"><tspan class="TextParagraph" font-family="Liberation Sans" font-size="353px" font-weight="400"><tspan class="TextPosition" x="292" y="2085"><tspan fill="rgb(0,0,0)" stroke="none">120</tspan></tspan></tspan></text>
 <text class="TextShape"><tspan class="TextParagraph" font-family="Liberation Sans" font-size="353px" font-weight="400"><tspan class="TextPosition" x="292" y="1231"><tspan fill="rgb(0,0,0)" stroke="none">140</tspan></tspan></tspan></text>
 <text class="TextShape"><tspan class="TextParagraph" font-family="Liberation Sans" font-size="353px" font-weight="400"><tspan class="TextPosition" x="292" y="378"><tspan fill="rgb(0,0,0)" stroke="none">160</tspan></tspan></tspan></text>
 <text class="TextShape"><tspan class="TextParagraph" font-family="Liberation Sans" font-size="459px" font-weight="400"><tspan class="TextPosition" x="5260" y="851"><tspan fill="rgb(0,0,0)" stroke="none">Different Greedy Algorithms</tspan></tspan></tspan></text>
 <path fill="rgb(0,69,134)" stroke="none" d="M 14564,4606 L 14458,4606 14458,4396 14669,4396 14669,4606 14564,4606 Z"/>
 <text class="TextShape"><tspan class="TextParagraph" font-family="Liberation Sans" font-size="353px" font-weight="400"><tspan class="TextPosition" x="14769" y="4620"><tspan fill="rgb(0,0,0)" stroke="none">Score</tspan></tspan></tspan></text>
</svg>